<?xml version="1.0" encoding="UTF-8" standalone="no"?>
<!DOCTYPE svg PUBLIC "-//W3C//DTD SVG 1.1//EN" "http://www.w3.org/Graphics/SVG/1.1/DTD/svg11.dtd"
[
<!ATTLIST g
  xmlns:vectornator CDATA #FIXED "http://vectornator.io"
  vectornator:layerName CDATA #IMPLIED >
<!ATTLIST g
  xmlns:vectornator CDATA #FIXED "http://vectornator.io"
  vectornator:mask CDATA #IMPLIED >
<!ATTLIST text
  xmlns:vectornator CDATA #FIXED "http://vectornator.io"
  vectornator:width CDATA #IMPLIED >

<!ATTLIST path
  xmlns:vectornator CDATA #FIXED "http://vectornator.io"
  vectornator:blendMode CDATA #IMPLIED >
<!ATTLIST path
  xmlns:vectornator CDATA #FIXED "http://vectornator.io"
  vectornator:shadowColor CDATA #IMPLIED >
<!ATTLIST path
  xmlns:vectornator CDATA #FIXED "http://vectornator.io"
  vectornator:shadowOpacity CDATA #IMPLIED >
<!ATTLIST path
  xmlns:vectornator CDATA #FIXED "http://vectornator.io"
  vectornator:shadowRadius CDATA #IMPLIED >
<!ATTLIST path
  xmlns:vectornator CDATA #FIXED "http://vectornator.io"
  vectornator:shadowOffset CDATA #IMPLIED >
<!ATTLIST path
  xmlns:vectornator CDATA #FIXED "http://vectornator.io"
  vectornator:shadowAngle CDATA #IMPLIED >

<!ATTLIST image
  xmlns:vectornator CDATA #FIXED "http://vectornator.io"
  vectornator:blendMode CDATA #IMPLIED >
<!ATTLIST image
  xmlns:vectornator CDATA #FIXED "http://vectornator.io"
  vectornator:shadowColor CDATA #IMPLIED >
<!ATTLIST image
  xmlns:vectornator CDATA #FIXED "http://vectornator.io"
  vectornator:shadowOpacity CDATA #IMPLIED >
<!ATTLIST image
  xmlns:vectornator CDATA #FIXED "http://vectornator.io"
  vectornator:shadowRadius CDATA #IMPLIED >
<!ATTLIST image
  xmlns:vectornator CDATA #FIXED "http://vectornator.io"
  vectornator:shadowOffset CDATA #IMPLIED >
<!ATTLIST image
  xmlns:vectornator CDATA #FIXED "http://vectornator.io"
  vectornator:shadowAngle CDATA #IMPLIED >

<!ATTLIST g
  xmlns:vectornator CDATA #FIXED "http://vectornator.io"
  vectornator:blendMode CDATA #IMPLIED >
<!ATTLIST g
  xmlns:vectornator CDATA #FIXED "http://vectornator.io"
  vectornator:shadowColor CDATA #IMPLIED >
<!ATTLIST g
  xmlns:vectornator CDATA #FIXED "http://vectornator.io"
  vectornator:shadowOpacity CDATA #IMPLIED >
<!ATTLIST g
  xmlns:vectornator CDATA #FIXED "http://vectornator.io"
  vectornator:shadowRadius CDATA #IMPLIED >
<!ATTLIST g
  xmlns:vectornator CDATA #FIXED "http://vectornator.io"
  vectornator:shadowOffset CDATA #IMPLIED >
<!ATTLIST g
  xmlns:vectornator CDATA #FIXED "http://vectornator.io"
  vectornator:shadowAngle CDATA #IMPLIED >

<!ENTITY % SVG.filter.extra.content  "| feDropShadow" >
<!ELEMENT feDropShadow EMPTY>
<!ATTLIST feDropShadow
  xmlns:svg CDATA #FIXED "http://www.w3.org/Graphics/SVG/1.1/DTD/svg11.dtd"
  dx CDATA #IMPLIED>
<!ATTLIST feDropShadow
  xmlns:svg CDATA #FIXED "http://www.w3.org/Graphics/SVG/1.1/DTD/svg11.dtd"
  dy CDATA #IMPLIED>
<!ATTLIST feDropShadow
  xmlns:svg CDATA #FIXED "http://www.w3.org/Graphics/SVG/1.1/DTD/svg11.dtd"
  stdDeviation CDATA #IMPLIED>
<!ATTLIST feDropShadow
  xmlns:svg CDATA #FIXED "http://www.w3.org/Graphics/SVG/1.1/DTD/svg11.dtd"
  flood-opacity CDATA #IMPLIED>
<!ATTLIST feDropShadow
  xmlns:svg CDATA #FIXED "http://www.w3.org/Graphics/SVG/1.1/DTD/svg11.dtd"
  in CDATA #IMPLIED>
<!ATTLIST feDropShadow
  xmlns:svg CDATA #FIXED "http://www.w3.org/Graphics/SVG/1.1/DTD/svg11.dtd"
  result CDATA #IMPLIED>
<!ATTLIST feDropShadow
  xmlns:svg CDATA #FIXED "http://www.w3.org/Graphics/SVG/1.1/DTD/svg11.dtd"
  flood-color CDATA #IMPLIED>
]
>
<!-- Created with Vectornator (http://vectornator.io/) -->
<svg height="100%" stroke-miterlimit="10" style="fill-rule:nonzero;clip-rule:evenodd;stroke-linecap:round;stroke-linejoin:round;" version="1.1" viewBox="0 0 800 250" width="100%" xml:space="preserve" xmlns="http://www.w3.org/2000/svg" xmlns:vectornator="http://vectornator.io" xmlns:xlink="http://www.w3.org/1999/xlink">
<defs>
<filter color-interpolation-filters="sRGB" filterUnits="userSpaceOnUse" height="102.195" id="Filter" width="503.978" x="230.449" y="96.7591">
<feDropShadow dx="-3.61999e-06" dy="1" flood-color="#5c1783" flood-opacity="1" in="SourceGraphic" result="Shadow" stdDeviation="1.5"/>
</filter>
<filter color-interpolation-filters="sRGB" filterUnits="userSpaceOnUse" height="138.511" id="Filter_2" width="227.811" x="23.623" y="10.2384">
<feDropShadow dx="-3.61999e-06" dy="1" flood-color="#000000" flood-opacity="0.630858" in="SourceGraphic" result="Shadow" stdDeviation="1.5"/>
</filter>
<filter color-interpolation-filters="sRGB" filterUnits="userSpaceOnUse" height="10.3982" id="Filter_3" width="28.1114" x="763.439" y="128.772">
<feDropShadow dx="-3.61999e-06" dy="1" flood-color="#5c1783" flood-opacity="1" in="SourceGraphic" result="Shadow" stdDeviation="1.5"/>
</filter>
<filter color-interpolation-filters="sRGB" filterUnits="userSpaceOnUse" height="10.4419" id="Filter_4" width="29.459" x="762.42" y="155.236">
<feDropShadow dx="-3.61999e-06" dy="1" flood-color="#5c1783" flood-opacity="1" in="SourceGraphic" result="Shadow" stdDeviation="1.5"/>
</filter>
<filter color-interpolation-filters="sRGB" filterUnits="userSpaceOnUse" height="80.1285" id="Filter_5" width="269.481" x="8.51029" y="137.916">
<feDropShadow dx="-2.53399e-05" dy="7" flood-color="#000000" flood-opacity="0.630858" in="SourceGraphic" result="Shadow" stdDeviation="3.5"/>
</filter>
<clipPath id="TextBounds">
<rect height="82.9009" width="398.263" x="471.69" y="0"/>
</clipPath>
<filter color-interpolation-filters="sRGB" filterUnits="userSpaceOnUse" height="116.434" id="Filter_6" width="204.992" x="35.7234" y="21.784">
<feComponentTransfer in="SourceGraphic" result="Alpha">
<feFuncA slope="0.314102" type="linear"/>
</feComponentTransfer>
<feDropShadow dx="-3.61999e-06" dy="1" flood-color="#bebebe" flood-opacity="0.630858" in="Alpha" result="Shadow" stdDeviation="1.5"/>
</filter>
<filter color-interpolation-filters="sRGB" filterUnits="userSpaceOnUse" height="48.6399" id="Filter_7" width="51.6076" x="717.396" y="121.265">
<feDropShadow dx="-3.61999e-06" dy="1" flood-color="#000000" flood-opacity="0.630858" in="SourceGraphic" result="Shadow" stdDeviation="1.5"/>
</filter>
<filter color-interpolation-filters="sRGB" filterUnits="userSpaceOnUse" height="65.5781" id="Filter_8" width="14.7268" x="755.552" y="113.845">
<feDropShadow dx="-3.61999e-06" dy="1" flood-color="#000000" flood-opacity="0.630858" in="SourceGraphic" result="Shadow" stdDeviation="1.5"/>
</filter>
<clipPath id="TextBounds_2">
<rect height="59.792" width="327.81" x="-23.6522" y="82.6326"/>
</clipPath>
</defs>
<g id="Слой-1" vectornator:layerName="Слой 1">
<g filter="url(#Filter)" vectornator:shadowAngle="1.5708" vectornator:shadowColor="#5c1783" vectornator:shadowOffset="1" vectornator:shadowOpacity="1" vectornator:shadowRadius="3">
<path d="M424.094 100.438C423.698 100.388 423.508 100.829 423.406 101.125C423.161 101.835 423.092 102.613 422.812 103.312C422.652 103.715 422.409 104.064 422.188 104.438C421.667 105.316 421.116 106.198 420.625 107.094C420.305 107.678 420.098 108.307 419.75 108.875C419.468 109.335 419.122 109.745 418.812 110.188C418.506 110.626 418.252 111.119 417.875 111.5C417.519 111.86 417.071 112.085 416.656 112.375C415.814 112.964 414.9 113.5 413.969 113.938C410.838 115.409 407.319 116.61 405.281 119.594C403.878 121.648 404.543 124.401 404.906 126.688C405.195 128.505 405.559 130.325 405.75 132.156C405.845 133.069 405.913 134.024 405.781 134.938C405.633 135.966 404.973 136.819 404.5 137.719C403.457 139.705 401.946 141.832 400.062 143.156C399.061 142.378 398.027 141.674 396.906 141.094C395.611 140.424 394.78 141.11 394 142.031C393.992 140.913 394.145 139.762 393.531 138.781C393.013 137.953 392.245 137.165 391.531 136.562C390.399 135.608 389.215 134.722 388 133.875C387.308 133.392 386.378 132.9 385.5 132.781C382.068 132.316 380.541 135.427 378.281 137.281C377.612 137.83 376.857 138.305 376.156 138.812C375.386 139.371 374.627 139.933 373.781 140.375C372.875 140.85 371.902 141.205 370.969 141.625C370.233 141.956 369.487 142.196 368.75 142.438C368.408 141.823 368.107 141.184 367.812 140.562C367.264 139.407 367.335 138.077 366.812 136.906C365.946 134.964 363.779 133.231 362.156 132.031C361.417 131.484 360.667 130.968 359.875 130.5C359.428 130.235 358.96 130.013 358.469 129.844C358.317 129.791 358.127 129.816 357.969 129.844C357.338 129.956 357.058 131.619 356.875 132.125C356.586 132.925 355.965 133.611 355.5 134.312C354.694 135.531 353.904 136.733 353.125 137.969C351.209 141.007 349.41 144.139 347.844 147.375C346.258 150.651 344.802 153.972 343.156 157.219C342.802 154.819 342.434 152.422 342.031 150.031C340.612 141.611 338.77 133.284 337.469 124.844C337.147 122.755 337.06 120.624 336.781 118.531C336.625 117.361 336.282 116.247 336.062 115.094C335.96 114.555 335.98 114.002 335.844 113.469C335.689 112.862 335.371 112.329 334.938 111.875C334.296 111.203 333.616 110.536 332.906 109.938C332.069 109.232 331.181 108.593 330.281 107.969C329.85 107.669 329.4 107.406 328.938 107.156C328.43 106.882 327.722 106.626 327.125 106.688C326.676 106.734 326.47 107.058 326.406 107.469C326.312 108.073 326.469 108.682 326.344 109.281C326.195 109.995 325.699 110.804 325.406 111.469C325.262 111.796 325.144 112.141 325 112.469C324.711 113.124 324.417 113.784 324.125 114.438C322.583 117.89 321.047 121.36 319.188 124.656C316.912 128.689 314.211 132.456 311.656 136.312C310.195 138.519 308.675 140.732 307.531 143.125C306.344 145.609 305.393 148.262 303.656 150.438C302.959 151.311 302.066 152.06 301.125 152.719C301 152.169 300.779 151.648 300.688 151.094C300.071 147.363 300.316 143.517 299.594 139.812C299.384 138.738 299.866 137.594 299.062 136.656C298.545 136.053 298.038 135.457 297.438 134.938C296.362 134.007 295.224 133.164 294.062 132.344C293.61 132.024 293.088 131.782 292.594 131.531C292.067 131.264 291.237 131.054 290.688 131.375C289.845 131.866 290.38 133.481 290.125 134.281C289.958 134.806 289.788 135.318 289.625 135.844C289.048 137.704 288.581 139.588 287.875 141.406C287.49 142.398 286.964 143.314 286.531 144.281C285.935 145.613 285.451 146.74 283.844 146.969C282.696 147.132 281.513 146.787 280.375 146.656C279.017 146.5 277.613 146.514 276.25 146.469C270.626 146.282 264.997 146.175 259.375 146.469C256.968 146.594 254.429 146.729 252.094 147.375C251.179 147.628 250.305 148.014 249.406 148.312C248.448 148.631 247.454 148.847 246.469 149.062C242.539 149.921 238.511 150.408 234.531 150.969C234.273 151.28 235.62 152.819 237.531 154.406C239.442 155.993 241.21 157.03 241.469 156.719C245.463 156.156 249.463 155.674 253.406 154.812C254.407 154.594 255.433 154.386 256.406 154.062C257.952 153.549 259.34 152.963 260.969 152.719C265.389 152.055 269.917 152.08 274.375 152.062C278.32 152.047 282.246 152.19 286.188 152.344C288.068 152.417 290.233 153.27 292 152.312C293.15 151.689 293.417 150.394 293.969 149.312C294.12 149.017 294.208 148.705 294.344 148.406C294.627 149.469 294.777 150.551 295.219 151.594C295.593 152.478 295.595 153.451 296.25 154.219C297.801 156.037 299.755 157.482 301.719 158.844C302.508 159.391 303.491 159.83 304.469 159.875C305.666 159.931 306.804 159.386 307.781 158.75C309.76 157.462 311.204 155.754 312.344 153.688C312.688 153.063 313.042 152.334 313.344 151.688C313.803 150.704 314.219 149.698 314.688 148.719C315.263 147.515 315.949 146.384 316.656 145.25C319.807 140.201 323.416 135.439 326.344 130.25C327.503 128.195 328.51 126.078 329.5 123.938C329.921 123.027 330.33 122.101 330.75 121.188C331.13 123.591 331.398 126.004 331.844 128.406C332.761 133.345 333.724 138.271 334.594 143.219C335.361 147.584 335.964 151.968 336.656 156.344C336.984 158.416 337.44 160.467 337.812 162.531C337.983 163.477 337.55 164.46 337.719 165.406C337.738 165.517 337.755 165.623 337.812 165.719C338.015 166.057 338.199 166.433 338.5 166.688C340.291 168.204 342.155 169.633 344.062 171C344.312 171.179 344.793 171.351 345.156 171.281C345.867 171.145 346.822 169.949 347.188 169.375C347.796 168.419 348.151 167.316 348.594 166.281C348.968 165.409 349.465 164.59 349.906 163.75C350.174 163.241 350.431 162.734 350.688 162.219C352.718 158.141 354.416 153.895 356.562 149.875C358.413 146.41 360.62 143.193 362.75 139.906C362.901 140.732 362.943 141.59 363.375 142.344C363.817 143.115 364.541 143.911 365.156 144.469C365.981 145.217 366.86 145.924 367.75 146.594C368.985 147.523 370.42 148.486 372 148.719C374.096 149.028 376.13 148.186 378 147.344C378.939 146.921 379.931 146.54 380.844 146.062C381.981 145.467 382.958 144.679 384 143.938C384.377 143.669 385 143.246 385.375 142.938C386.231 142.235 386.99 141.445 387.75 140.656C387.918 141.173 388.128 141.685 388.219 142.188C388.409 143.242 388.03 144.437 388.812 145.344C389.469 146.105 390.098 146.894 390.875 147.531C392.244 148.653 393.737 149.626 395.219 150.594C395.528 150.795 396.188 151.013 396.625 151.094C398.004 151.348 398.774 150.005 399.594 149.156C399.99 148.746 400.47 148.438 400.844 148C400.881 147.956 400.932 147.921 400.969 147.875C401.225 148.065 401.427 148.317 401.688 148.5C403.074 149.471 404.369 150.133 406.031 149.5C407.386 148.984 408.344 147.838 409.312 146.812C410.539 145.514 411.286 143.999 412.125 142.438C412.5 141.74 412.857 141.215 412.969 140.438C413.141 139.239 412.997 137.973 412.844 136.781C412.513 134.209 411.964 131.68 411.75 129.094C411.713 128.648 411.588 128.196 411.625 127.75C411.676 127.126 411.839 126.512 412 125.906C412.129 125.421 412.875 124.599 413.219 124.219C414.379 122.934 415.863 122.032 417.406 121.281C419.067 120.474 420.871 119.892 422.469 118.969C422.917 118.709 423.294 118.36 423.719 118.062C424.146 117.763 424.633 117.527 425 117.156C425.386 116.766 425.654 116.262 425.969 115.812C426.281 115.366 426.622 114.933 426.906 114.469C427.187 114.011 427.414 113.521 427.656 113.031C427.897 113.865 428.135 114.698 428.375 115.531C431.833 127.518 434.76 139.683 436.406 152.062C437.047 156.878 437.701 161.716 438.344 166.531C438.474 167.508 437.551 168.971 438.094 169.844C438.322 170.211 438.522 170.618 438.844 170.906C440.3 172.209 441.834 173.435 443.406 174.594C443.889 174.949 444.455 175.157 445 175.406C445.369 175.575 445.841 175.537 446.219 175.438C448.087 174.944 447.616 172.822 448.438 171.5C449.045 170.523 449.707 169.583 450.344 168.625C452.227 165.793 454.097 162.933 455.969 160.094C456.587 159.155 457.213 158.232 457.812 157.281C457.894 157.152 457.893 157.023 457.875 156.875C457.804 156.309 457.457 155.778 457.156 155.312C456.52 154.329 455.743 153.442 455.094 152.469C454.923 152.213 454.785 151.95 454.625 151.688C454.618 151.638 454.628 151.625 454.625 151.594C454.615 151.473 454.577 151.266 454.656 151.156C454.917 150.795 455.405 150.596 455.875 150.469C457.494 150.029 459.229 150.184 460.875 149.969C461.447 149.894 462.055 149.863 462.594 149.656C463.01 149.496 463.353 149.201 463.688 148.906C464.167 148.483 464.501 147.623 464.781 147.062C465.318 145.988 465.905 144.928 466.656 144C466.902 144.509 467.253 145.021 467.625 145.406C468.219 146.023 468.842 146.64 469.5 147.188C470.381 147.92 471.308 148.598 472.25 149.25C473.193 149.903 474.287 150.495 475.438 150.688C478.042 151.124 480.2 149.14 482.406 148.125C483.963 147.409 485.621 146.902 487.219 146.281C489.659 145.334 492.078 144.35 494.531 143.438C495.144 143.21 495.758 143.007 496.344 142.719C496.864 142.463 497.407 142.156 497.969 141.906C499.236 142.897 500.486 143.903 501.812 144.812C502.198 145.077 502.684 145.187 503.125 145.344C503.97 145.644 504.991 145.649 505.875 145.594C507.286 145.506 508.506 145.282 509.719 144.844C510.394 145.842 511.164 146.771 512.094 147.531C513.272 148.494 514.513 149.378 515.781 150.219C516.299 150.562 517.05 150.904 517.719 150.969C518.639 151.058 519.686 150.593 520.469 150.156C522.078 149.257 523.423 147.847 524.844 146.688C525.48 146.168 526.127 145.629 526.75 145.094C528.891 143.253 530.961 141.326 533.031 139.406C535.152 137.439 537.249 135.464 539.188 133.312C541.525 130.718 543.653 127.953 545.656 125.094C545.953 124.671 546.19 124.211 546.469 123.781C546.731 125.871 547.022 127.967 547.188 130.062C547.396 132.702 547.355 135.356 547.281 138C547.179 141.644 546.982 145.291 547.031 148.938C547.088 153.12 547.507 157.483 549.312 161.312C550.704 164.263 552.945 166.618 555.406 168.719C555.914 169.152 556.436 169.536 556.969 169.938C556.991 169.962 556.986 169.984 557 170C557.046 170.054 557.081 170.101 557.125 170.156C557.246 170.309 557.362 170.461 557.469 170.625C557.83 171.183 558.098 171.789 558.25 172.438C558.799 174.783 557.59 176.907 556.875 179.062C556.58 179.952 556.318 180.742 556.25 181.688C556.193 182.48 556.393 183.15 556.219 183.906C555.987 184.91 555.344 185.921 555.375 186.969C555.386 187.328 555.561 187.785 555.812 188.031C557.053 189.248 558.315 190.466 559.688 191.531C560.509 192.169 561.458 192.633 562.375 193.125C562.587 193.239 562.966 193.289 563.219 193.281C566.205 193.189 566.314 190.399 567.375 188.344C568.142 186.857 569.197 185.517 570.031 184.062C571.761 181.045 573.299 177.912 574.875 174.812C581.24 162.297 587.186 149.551 593.906 137.219C595.16 134.918 596.405 132.56 597.906 130.406C598.576 129.446 599.34 128.514 600.094 127.594C600.232 128.26 600.367 128.931 600.5 129.594C601.092 132.544 601.725 135.461 602.344 138.406C602.61 139.672 602.949 140.967 603.125 142.25C603.559 145.413 603.079 148.698 604.781 151.562C604.936 151.823 605.401 152.518 605.594 152.719C606.328 153.485 607.044 154.309 607.875 154.969C609.086 155.93 610.411 156.769 611.719 157.594C612.051 157.804 612.558 157.922 612.969 157.844C613.951 157.658 614.81 156.615 615.469 155.969C615.97 155.477 616.517 155.039 617.031 154.562C617.682 153.959 618.21 153.243 618.812 152.594C619.187 152.191 619.546 151.84 619.844 151.375C619.919 151.257 619.991 151.126 620.062 151C620.153 151.063 620.217 151.162 620.312 151.219C621.399 151.872 622.491 152.53 623.594 153.156C623.693 153.213 623.794 153.228 623.906 153.25C625.639 153.595 627.152 152.517 628.469 151.531C629.159 151.015 629.917 150.54 630.562 149.969C631.481 149.156 632.171 148.119 633.062 147.281C633.903 146.491 634.869 145.741 635.781 145.031C636.063 144.812 636.414 144.718 636.719 144.531C637.538 145.132 638.331 145.783 639.156 146.375C639.387 146.541 639.671 146.619 639.938 146.719C641.03 147.126 642.232 147.09 643.375 147.094C644.547 147.098 645.734 147.107 646.906 147.094C651.908 147.038 656.903 146.691 661.906 146.812C666.211 146.917 670.507 147.348 674.812 147.469C683.994 147.727 693.161 147.801 702.344 148C711.649 148.202 720.954 148.508 730.25 148.969C730.509 148.665 729.209 147.15 727.344 145.562C725.478 143.975 723.759 142.946 723.5 143.25C711.393 142.65 699.275 142.315 687.156 142.094C679.614 141.956 672.032 141.985 664.5 141.562C660.975 141.365 657.47 141.065 653.938 141.031C650.696 141 647.457 141.147 644.219 141.25C642.04 141.319 639.867 141.354 637.688 141.344C636.534 140.393 635.397 139.44 634.188 138.562C633.784 138.27 633.124 137.946 632.562 137.875C631.161 137.697 629.711 138.554 628.656 139.375C627.738 140.09 626.784 140.829 625.938 141.625C624.933 142.569 624.196 143.779 623.094 144.625C622.469 145.104 621.761 145.529 621.094 146C620.376 145.389 619.691 144.753 618.938 144.188C618.313 143.719 617.571 143.384 616.875 143.031C616.518 142.85 616.029 142.774 615.625 142.781C613.834 142.815 613.34 144.998 612.438 146.156C611.823 146.945 611.06 147.59 610.344 148.281C610.322 148.052 610.344 147.822 610.312 147.594C610.066 145.799 609.594 144.021 609.219 142.25C608.291 137.866 607.198 133.47 606.562 129.031C606.248 126.837 606.837 124.562 606.219 122.406C606.088 121.952 605.852 121.138 605.5 120.812C603.861 119.297 602.259 117.708 600.469 116.375C599.847 115.912 599.078 115.72 598.344 115.469C598.106 115.387 597.595 116.166 597.5 116.312C596.797 117.397 596.338 118.143 595.438 119.125C595.144 119.445 594.823 119.741 594.531 120.062C593.195 121.534 591.888 123.149 590.75 124.781C588.641 127.806 586.959 131.177 585.25 134.438C578.125 148.033 571.566 161.891 564.469 175.5C563.231 173.399 561.219 171.564 559.562 170.156C559.155 169.81 558.622 169.39 558.125 169C556.624 167.189 555.718 164.989 555.156 162.719C554.335 159.401 554.24 155.962 554.25 152.562C554.26 148.916 554.477 145.27 554.531 141.625C554.562 139.566 554.537 137.522 554.375 135.469C554.121 132.255 553.593 129.055 553.281 125.844C553.05 123.463 552.765 121.095 552.5 118.719C552.376 117.605 553.121 116.329 552.281 115.344C551.831 114.815 551.407 114.258 550.875 113.812C549.544 112.698 548.146 111.677 546.719 110.688C546.369 110.445 545.955 110.289 545.562 110.125C544.752 109.787 543.678 110.187 543.188 110.875C542.602 111.695 542.667 112.767 542.156 113.625C540.729 116.022 539.293 118.39 537.656 120.656C537.107 121.417 536.479 122.288 535.906 123.031C531.202 129.14 525.458 134.422 519.625 139.438C518.557 140.356 517.45 141.216 516.375 142.125C515.588 142.791 514.852 143.51 514 144.094C513.754 143.713 513.589 143.339 513.188 142.938C511.682 141.431 509.993 140.024 508.156 138.938C507.527 138.565 506.498 137.972 505.656 137.969C504.495 137.965 503.524 139.094 502.438 139.406C501.435 139.694 500.304 139.749 499.219 139.781C499.17 139.738 499.142 139.667 499.094 139.625C498.284 138.926 497.427 138.255 496.562 137.625C495.454 136.818 493.924 135.738 492.438 135.781C491.302 135.814 490.298 136.547 489.312 137.031C488.737 137.314 488.133 137.495 487.531 137.719C484.024 139.022 480.562 140.426 477.062 141.75C476.265 142.052 475.473 142.352 474.719 142.75C473.856 143.205 473.024 143.711 472.156 144.156C472.116 144.093 472.105 144.033 472.062 143.969C470.488 141.552 468.526 139.801 466.156 138.062C465.505 137.585 464.799 137.205 464.094 136.812C462.001 135.647 460.08 137.226 458.938 138.969C458.292 139.953 457.873 141.064 457.312 142.094C457.096 142.492 456.932 142.948 456.594 143.25C456.288 143.523 455.946 143.791 455.562 143.938C455.06 144.13 454.503 144.182 453.969 144.25C452.561 144.43 451.123 144.343 449.719 144.562C449.084 144.661 448.416 144.822 447.875 145.188C446.83 145.893 447.828 147.212 448.312 147.938C448.628 148.411 448.978 148.853 449.312 149.312C449.535 149.618 449.749 149.942 449.969 150.25C450.119 150.461 450.842 151.401 450.656 151.688C448.496 155.018 446.288 158.317 444.094 161.625C443.615 157.869 443.168 154.112 442.531 150.375C440.378 137.73 436.832 125.456 433.375 113.125C433.177 112.42 432.969 111.726 432.875 111C432.715 109.765 432.742 108.554 432.281 107.375C431.81 106.169 430.746 105.027 429.781 104.219C428.71 103.322 427.643 102.427 426.5 101.625C425.891 101.198 425.231 100.858 424.562 100.531C424.419 100.461 424.253 100.457 424.094 100.438Z" fill="#f1f1f1" stroke="none"/>
</g>
<g filter="url(#Filter_2)" vectornator:shadowAngle="1.5708" vectornator:shadowColor="#000000" vectornator:shadowOffset="1" vectornator:shadowOpacity="0.630858" vectornator:shadowRadius="3">
<path d="M34.5531 24.236C27.6215 53.3056 42.1685 138.481 43.6112 138.557C49.1619 138.852 228.634 138.683 229.758 137.374C231.343 135.529 239.346 86.3289 239.237 80.3145C239.207 78.6896 243.272 23.9887 242.18 22.8225C241.115 21.684 239.133 22.4992 237.603 22.4736C233.539 22.4055 229.472 22.6426 225.408 22.5417C220.126 22.4105 214.853 21.9886 209.573 21.7773C181.371 20.6487 153.434 18.7865 125.185 18.6512C101.601 18.5382 78.4185 17.5277 54.8782 19.6036C46.7684 20.3188 36.6047 15.6325 34.5531 24.236Z" fill="#ebebeb" fill-rule="evenodd" stroke="none"/>
<path d="M83.2812 14.4688C75.2277 14.492 67.1683 14.6565 59.125 15.125C56.6714 15.2679 54.2314 15.4642 51.7812 15.6562C50.6187 15.7474 49.4483 15.8509 48.2812 15.8438C44.2015 15.8188 40.0771 14.7605 36 15.2188C33.8421 15.4613 35.997 15.2044 29.75 20.5312C29.7477 20.5342 29.7521 20.5594 29.75 20.5625C27.9744 36.4695 28.1444 31.1353 27.9688 36.4688C27.7616 42.7582 27.912 49.0602 28.2188 55.3438C29.054 72.4515 31.0354 89.4932 33.5 106.438C34.4954 113.281 35.5512 120.112 36.8438 126.906C37.2234 128.902 37.6137 130.9 38.0938 132.875C38.2653 133.581 38.3999 134.614 38.8438 135.219C39.1904 135.691 39.4769 136.232 39.9375 136.594C42.5225 138.625 45.2422 140.492 47.9375 142.375C48.0878 142.48 49.2283 142.434 49.4375 142.438C50.7849 142.457 52.1213 142.46 53.4688 142.469C58.6967 142.501 63.9283 142.493 69.1562 142.5C89.4582 142.528 109.761 142.495 130.062 142.438C157.261 142.361 184.46 142.274 211.656 141.906C217.292 141.83 222.928 141.77 228.562 141.594C230.056 141.547 231.541 141.48 233.031 141.375C233.397 141.349 234.207 141.413 234.5 141.125C234.892 140.74 235.023 139.873 235.156 139.375C236.018 136.161 236.605 132.86 237.219 129.594C238.086 124.983 238.886 120.378 239.656 115.75C241.234 106.265 242.841 96.7272 243.812 87.1562C243.97 85.6079 244.031 84.0505 244.125 82.5C244.287 79.8147 244.445 77.1529 244.625 74.4688C245.174 66.2594 245.719 58.0251 246.219 49.8125C246.579 43.8954 246.95 37.9885 247.125 32.0625C247.17 30.5464 247.227 29.0166 247.156 27.5C247.141 27.1726 247.158 26.5274 246.938 26.25C246.332 25.4877 245.775 24.6641 245.062 24C243.752 22.7774 242.361 21.6408 240.906 20.5938C239.936 19.8955 238.867 19.3434 237.812 18.7812C237.543 18.6378 237.232 18.5797 236.938 18.5C235.779 18.1865 234.599 18.5605 233.438 18.625C232.306 18.6878 231.134 18.6126 230 18.625C225.636 18.6726 221.3 18.7652 216.938 18.5625C197.164 17.6439 177.404 16.5911 157.625 15.7812C150.009 15.4694 142.371 15.1665 134.75 15C125.64 14.801 116.549 14.8089 107.438 14.6875C99.386 14.5802 91.3348 14.4455 83.2812 14.4688ZM84.3438 22.2188C96.5302 22.0514 108.689 22.2635 120.875 22.4062C133.204 22.5507 145.551 22.6563 157.875 23.0938C174.272 23.6758 190.64 24.5981 207.031 25.3125C217.039 25.7487 227.042 26.5258 237.062 26.3438C237.187 26.3415 237.313 26.345 237.438 26.3438C237.394 27.5206 237.369 28.6989 237.312 29.875C236.942 37.5827 236.465 45.2994 235.969 53C235.573 59.1401 235.156 65.2669 234.75 71.4062C234.564 74.2123 234.503 77.0466 234.219 79.8438C233.192 89.9558 231.468 100.013 229.781 110.031C229.02 114.551 228.238 119.092 227.375 123.594C226.836 126.405 226.304 129.233 225.562 132C225.454 132.405 225.334 132.794 225.188 133.188C225.151 133.286 225.005 133.526 225 133.625C225 133.627 223.788 133.738 223.594 133.75C221.835 133.862 220.073 133.888 218.312 133.938C217.908 133.949 217.498 133.958 217.094 133.969C216.662 133.98 216.244 133.99 215.812 134C215.351 134.011 214.899 134.021 214.438 134.031C203.439 134.27 192.438 134.378 181.438 134.469C146.693 134.756 111.933 134.835 77.1875 134.844C68.1305 134.846 59.0882 134.843 50.0312 134.812C48.8987 134.809 47.7576 134.818 46.625 134.812C46.3359 133.323 46.047 131.838 45.7812 130.344C44.6254 123.847 43.61 117.346 42.6875 110.812C40.2863 93.806 38.3861 76.6696 37.7188 59.5C37.4978 53.8156 37.6966 59.4717 39.3438 27.9062C40.1761 25.7715 39.8055 26.3734 40.2188 25.6875C42.7179 21.5397 49.0738 22.8726 53.0312 23.25C54.8177 23.4204 56.61 23.5679 58.4062 23.5C61.202 23.3944 63.9878 23.0377 66.7812 22.875C72.6233 22.5348 78.4918 22.2991 84.3438 22.2188Z" fill="#f1f1f1" stroke="none"/>
</g>
<path d="M768.439 132.772C772.462 133.028 776.595 133.254 780.623 133.14C782.014 133.101 783.403 133.036 784.798 133.052C785.156 133.056 786.766 133.181 786.527 133.09" fill="none" fill-rule="evenodd" filter="url(#Filter_3)" stroke="#feff34" stroke-linecap="round" stroke-linejoin="round" stroke-width="4" vectornator:shadowAngle="1.5708" vectornator:shadowColor="#5c1783" vectornator:shadowOffset="1" vectornator:shadowOpacity="1" vectornator:shadowRadius="3"/>
<path d="M767.42 159.252C772.842 159.18 778.282 159.35 783.698 159.54C784.478 159.568 785.5 159.448 786.312 159.544C786.505 159.567 786.876 159.483 786.879 159.677" fill="none" fill-rule="evenodd" filter="url(#Filter_4)" stroke="#feff34" stroke-linecap="round" stroke-linejoin="round" stroke-width="4" vectornator:shadowAngle="1.5708" vectornator:shadowColor="#5c1783" vectornator:shadowOffset="1" vectornator:shadowOpacity="1" vectornator:shadowRadius="3"/>
<g filter="url(#Filter_5)" vectornator:shadowAngle="1.5708" vectornator:shadowColor="#000000" vectornator:shadowOffset="7" vectornator:shadowOpacity="0.630858" vectornator:shadowRadius="7">
<path d="M21.5783 197.977C21.5783 197.977 69.3108 196.137 88.0162 196.279C105.178 196.41 122.299 196.16 139.455 196.279C150.131 196.353 173.428 196.365 183.826 196.352C206.088 196.323 215.205 196.178 238.21 196.279C245.343 196.311 252.483 196.899 259.605 196.279C261.221 196.139 263.15 196.985 264.46 196.279C269.205 193.726 236.005 146.028 234.846 145.157C232.314 143.252 48.7913 143.767 46.5802 145.983C45.5539 147.012 21.5783 197.977 21.5783 197.977Z" fill="#e8e8e8" fill-rule="evenodd" stroke="none"/>
<path d="M150.531 140.156C128.755 140.184 106.961 140.292 85.1875 140.625C74.599 140.787 64.0211 140.901 53.4375 141.281C50.5693 141.384 47.6743 141.492 44.8125 141.719C44.2007 141.767 42.3217 141.786 41.8438 142.219C41.4409 142.583 41.1797 143.313 40.9375 143.781C40.3953 144.829 39.8664 145.88 39.3438 146.938C37.5849 150.498 35.8744 154.076 34.1562 157.656C28.3144 169.828 34.1734 157.655 16.8125 194.25C16.4775 194.68 18.3289 196.695 20.9688 198.75C21.03 198.798 21.064 198.828 21.125 198.875C23.5617 200.891 25.8208 202.212 26.1562 201.812C84.3529 200.147 64.9406 200.386 84.3438 200.156C92.7994 200.056 101.263 200.173 109.719 200.156C144.248 200.087 178.783 200.222 213.312 200.094C223.718 200.055 234.126 199.969 244.531 200.125C248.1 200.179 251.65 200.334 255.219 200.375C256.413 200.389 257.618 200.396 258.812 200.375C260.009 200.354 261.211 200.293 262.406 200.219C263.189 200.17 264.115 200.069 264.938 200.125C266.081 200.203 267.258 200.56 268.406 200.344C268.877 200.255 269.381 200.083 269.594 199.625C269.923 198.916 269.685 197.994 269.5 197.281C269.115 195.798 268.485 194.356 267.844 192.969C265.163 187.17 261.778 181.695 258.406 176.281C254.407 169.861 250.219 163.548 245.938 157.312C244.338 154.983 242.752 152.663 241.094 150.375C240.233 149.188 239.363 147.781 238.25 146.812C236.901 145.638 235.564 144.438 234.125 143.375C233.16 142.662 232.074 142.126 231.031 141.531C230.413 141.179 229.566 141.125 228.875 141.062C227.464 140.936 226.04 140.871 224.625 140.812C219.874 140.617 215.098 140.546 210.344 140.469C190.401 140.144 170.476 140.131 150.531 140.156ZM158.156 147.812C175.894 147.79 193.639 147.828 211.375 148.031C217.345 148.1 223.313 148.176 229.281 148.344C231.177 148.397 233.074 148.47 234.969 148.562C236.831 151.231 238.689 153.921 240.5 156.625C246.205 165.142 251.907 173.764 256.688 182.844C257.877 185.104 259.089 187.445 259.812 189.906C260.004 190.556 260.39 191.681 259.938 192.312C259.637 192.732 258.885 192.729 258.438 192.719C257.286 192.692 256.191 192.37 255.031 192.438C249.687 192.748 244.381 192.678 239.031 192.531C231.889 192.335 224.739 192.407 217.594 192.406C205.28 192.405 192.97 192.481 180.656 192.5C159.691 192.532 138.715 192.36 117.75 192.406C109.18 192.425 100.633 192.485 92.0625 192.469C85.9338 192.457 79.7849 192.415 73.6562 192.5C59.1318 192.701 51.4621 193.094 30.0938 193.781C37.1217 178.936 39.139 174.636 43.7188 165.094C45.4365 161.515 47.1479 157.965 48.9062 154.406C49.428 153.35 49.9588 152.265 50.5 151.219C50.7403 150.754 50.9535 150.142 51.3125 149.75C51.5032 149.542 52.9698 149.463 53.25 149.438C54.9904 149.277 56.7546 149.206 58.5 149.125C64.9646 148.824 71.4364 148.695 77.9062 148.562C104.653 148.015 131.405 147.846 158.156 147.812Z" fill="#f1f1f1" stroke="none"/>
</g>
<g opacity="1">
<path d="M150.531 37.5938C146.133 38.1181 142.046 40.056 139.438 44.0312C138.29 45.78 137.577 47.7828 136.906 49.75C136.158 51.9435 135.687 54.2058 135.188 56.4688C134.202 55.6458 133.222 54.7835 132.25 54.0312C127.679 50.4938 122.701 47.2584 117.25 45.25C111.024 42.9558 103.6 42.4354 98.2188 46.9688C97.1275 47.8881 96.1894 48.9556 95.375 50.125C92.5257 54.2164 91.5395 59.2735 91.4375 64.1875C91.3228 69.716 92.2738 75.3533 94.2188 80.5312C94.9657 82.5198 95.8206 84.5749 97.0625 86.3125C98.2134 87.9229 99.6928 89.3461 101.188 90.625C101.998 91.3189 102.915 91.9504 103.781 92.625C103.746 92.6758 103.69 92.7314 103.656 92.7812C101.976 95.2567 100.65 97.9284 99.5 100.688C98.8958 102.138 98.2898 103.63 97.9062 105.156C97.5099 106.734 97.5268 108.416 97.4375 110.031C97.3972 110.761 97.418 111.562 97.2812 112.281C97.2003 112.707 97.0304 113.117 96.9062 113.531C96.5641 114.673 96.4926 114.897 97.25 115.844C97.4285 116.067 97.617 116.291 97.8125 116.5C98.22 116.935 98.6228 117.348 99.0625 117.75C99.8593 118.479 100.686 119.203 101.531 119.875C102.96 121.01 104.45 122.057 106.031 122.969C106.308 123.128 106.586 123.271 106.875 123.406C107.018 123.473 107.165 123.538 107.312 123.594C107.371 123.616 107.546 123.698 107.5 123.656C107.615 123.707 107.817 123.712 107.906 123.719C108.501 123.761 108.923 122.9 109.125 122.531C109.213 122.37 109.296 122.197 109.375 122.031C109.461 121.849 109.547 121.655 109.625 121.469C109.71 121.267 109.797 121.079 109.875 120.875C111.349 117.013 111.966 112.754 114 109.125C115.169 107.039 117.275 105.11 119.094 103.594C123.571 99.8611 129.021 97.4028 134.688 96.0625C135.142 98.852 135.558 101.646 135.969 104.438C136.215 106.116 136.454 107.812 136.625 109.5C136.658 109.826 136.665 110.141 136.688 110.469C136.683 110.512 136.692 110.55 136.688 110.594C136.52 112.102 136.394 112.157 137.438 113.344C137.685 113.626 137.952 113.923 138.219 114.188C138.734 114.698 139.232 115.182 139.781 115.656C140.616 116.378 141.464 117.084 142.344 117.75C143.672 118.757 144.78 119.512 146.188 120.281C146.534 120.471 146.903 120.623 147.281 120.75C147.416 120.795 147.547 120.827 147.688 120.844C147.693 120.849 147.713 120.839 147.719 120.844C147.894 120.95 148.139 120.709 148.188 120.562C148.279 120.284 148.166 119.954 148.156 119.625C148.242 119.056 148.323 118.357 148.375 117.875C148.484 116.871 148.581 115.844 148.719 114.844C149.132 111.842 149.656 108.872 149.844 105.844C150.052 102.48 150.079 99.0871 150.219 95.7188C150.221 95.667 150.217 95.6143 150.219 95.5625C151.51 95.7639 152.811 95.9002 154.094 96.125C158.772 96.9449 163.438 97.935 167.969 99.375C170.674 100.235 173.301 101.305 175.875 102.5C176.587 102.83 177.272 103.171 177.969 103.531C178.113 103.606 178.266 103.665 178.406 103.75C178.741 103.978 179.07 104.214 179.406 104.438C179.599 104.358 179.361 103.339 178.875 102.156C178.389 100.973 177.849 100.077 177.656 100.156C178.651 102.628 178.949 103.089 178.656 102.625C178.062 101.683 177.637 100.601 177 99.6875C176.818 99.4268 176.481 99.3356 176.219 99.1562C175.945 98.9689 175.681 98.7801 175.406 98.5938C174.715 98.1252 174.014 97.6714 173.312 97.2188C171.406 95.9885 169.366 94.9865 167.312 94.0312C164.966 92.9401 162.565 91.9265 160.125 91.0625C156.935 89.9328 153.676 89.0834 150.375 88.3438C150.375 84.7413 150.221 81.1395 149.594 77.5938C149.331 76.1091 149.02 74.6369 148.5 73.2188C147.887 71.5449 147.013 69.956 146.062 68.4062C146.853 63.9158 147.916 59.4555 149.688 55.25C152.851 47.7389 161.112 45.6163 168.531 47.0625C169.873 47.3241 171.189 47.7383 172.469 48.25C173.035 49.1139 173.575 49.9958 174.062 50.9062C175.561 53.7053 176.717 56.6914 177.562 59.75C180.298 69.6453 180.43 80.0572 180.156 90.25C180.077 93.191 179.955 96.1226 179.844 99.0625C179.798 100.281 179.726 101.5 179.688 102.719C179.675 103.114 180.05 103.944 179.656 103.906C179.11 103.854 179.658 103.909 179.625 105.094C179.233 105.612 181.508 107.968 184.688 110.375C187.867 112.782 190.764 114.331 191.156 113.812C191.35 106.841 191.768 99.7756 191.781 92.75C191.795 85.7244 191.409 78.7262 189.938 71.8438C188.184 63.6412 184.728 55.6354 178.562 49.7812C176.8 48.1078 174.917 46.546 172.969 45.0938C171.372 43.9032 169.719 42.7883 168 41.7812C166.58 40.9491 165.116 40.19 163.594 39.5625C159.657 37.9401 154.929 37.0694 150.531 37.5938ZM120.469 52.7188C124.387 52.9479 128.326 54.3407 131.469 56.4375C131.486 56.453 131.489 56.4586 131.5 56.4688C131.584 56.5477 131.638 56.6371 131.719 56.7188C131.853 56.8536 131.995 56.9864 132.125 57.125C132.488 57.5127 132.786 57.8365 133.125 58.25C133.599 58.8283 133.951 59.5087 134.375 60.125C132.935 68.5638 132.761 77.2373 133.406 85.7812C132.967 85.7732 132.534 85.709 132.094 85.7188C125.56 85.8637 119.039 87.771 113.281 91C112.125 90.3015 110.956 89.604 109.781 88.9375C109.344 88.6896 108.599 88.7442 108.125 88.8438C108.075 88.8543 108.05 88.9248 108 88.9375C107.363 88.8985 106.722 88.8791 106.062 88.8125C105.936 88.7997 105.814 88.7628 105.688 88.75C105.522 88.3098 105.305 87.8834 105.156 87.4375C103.302 81.8703 102.518 75.7856 103.125 69.9375C103.478 66.5369 104.327 63.1389 106.094 60.1875C107.029 58.6248 108.198 57.176 109.594 56C112.661 53.416 116.55 52.4896 120.469 52.7188Z" fill="#f1f1f1" stroke="none"/>
</g>
<g fill="#9882a4" opacity="1" stroke="none">
<path clip-path="url(#TextBounds)" d="M577.499 53.5165C578.213 53.5204 578.576 52.4092 578.588 50.1828L578.646 39.5342C578.658 37.3079 578.307 36.1928 577.593 36.1889C577.383 36.1878 577.068 36.2596 576.647 36.4043C576.226 36.549 575.848 36.6205 575.511 36.6187C573.495 36.6077 572.493 35.4261 572.506 33.0737C572.522 30.2593 573.852 28.8593 576.499 28.8736C576.793 28.8752 577.255 28.9093 577.884 28.9757C578.514 29.0421 579.175 29.1087 579.868 29.1755C580.561 29.2423 581.212 29.2983 581.821 29.3437C582.43 29.389 582.902 29.4126 583.238 29.4144L603.275 29.5233C603.569 29.5249 604.031 29.5064 604.662 29.4678C605.292 29.4293 605.954 29.3804 606.647 29.3211C607.341 29.2619 607.992 29.2024 608.602 29.1427C609.211 29.083 609.684 29.0541 610.02 29.0559C612.666 29.0703 613.982 30.4847 613.966 33.2991C613.954 35.6515 612.939 36.8222 610.923 36.8112C610.587 36.8094 610.209 36.7338 609.79 36.5845C609.371 36.4352 609.056 36.36 608.846 36.3588C608.132 36.355 607.769 37.4662 607.757 39.6925L607.699 50.3411C607.687 52.5674 608.038 53.6826 608.752 53.6864C608.962 53.6876 609.277 53.6158 609.698 53.471C610.119 53.3263 610.497 53.2549 610.833 53.2567C612.85 53.2676 613.851 54.4493 613.839 56.8017C613.823 59.6161 612.493 61.0161 609.846 61.0017C609.51 60.9999 609.038 60.9763 608.429 60.931C607.82 60.8857 607.169 60.8296 606.476 60.7628C605.784 60.6961 605.122 60.6295 604.493 60.563C603.863 60.4966 603.401 60.4626 603.107 60.461C602.855 60.4596 602.487 60.4891 602.004 60.5495C601.52 60.6099 600.995 60.67 600.427 60.73C599.86 60.7899 599.293 60.8393 598.725 60.8782C598.158 60.9172 597.685 60.9356 597.307 60.9335C595.081 60.9214 593.975 59.5922 593.989 56.9458C594 54.8875 594.763 53.7574 596.276 53.5556C597.033 53.4757 597.507 53.2472 597.698 52.8702C597.889 52.4932 597.988 51.6326 597.995 50.2884L598.053 39.6398C598.057 38.9677 597.986 38.4737 597.841 38.1578C597.695 37.842 597.392 37.6828 596.93 37.6803L589.683 37.6409C588.801 37.6361 588.357 38.2848 588.35 39.587L588.292 50.2356C588.284 51.5798 588.374 52.4414 588.561 52.8205C588.748 53.1996 589.22 53.4332 589.975 53.5213C591.486 53.7396 592.236 54.8779 592.225 56.9362C592.211 59.5826 591.09 60.8997 588.864 60.8876C588.486 60.8856 588.013 60.862 587.447 60.8169C586.88 60.7718 586.313 60.7162 585.746 60.6501C585.179 60.584 584.655 60.5182 584.172 60.4525C583.689 60.3869 583.322 60.3534 583.07 60.352C582.734 60.3502 582.261 60.3791 581.652 60.4388C581.042 60.4985 580.391 60.558 579.697 60.6172C579.004 60.6765 578.342 60.7254 577.712 60.764C577.081 60.8026 576.619 60.821 576.325 60.8194C573.679 60.8051 572.363 59.3907 572.378 56.5762C572.391 54.2239 573.406 53.0532 575.422 53.0641C575.758 53.066 576.136 53.1415 576.555 53.2908C576.974 53.4402 577.289 53.5154 577.499 53.5165Z" fill-rule="evenodd"/>
<path clip-path="url(#TextBounds)" d="M632.777 61.9455C627.568 61.9172 623.554 60.4251 620.735 57.4693C617.915 54.5134 616.52 50.3681 616.549 45.0333C616.578 39.7405 618.008 35.621 620.838 32.6749C623.669 29.7287 627.625 28.2695 632.708 28.2971C637.707 28.3243 641.637 29.8159 644.498 32.772C647.36 35.7281 648.777 39.7685 648.749 44.8933C648.719 50.2701 647.3 54.4631 644.49 57.4724C641.68 60.4817 637.776 61.9727 632.777 61.9455ZM632.666 36.0473C630.818 36.0372 629.353 36.8379 628.274 38.4493C627.194 40.0607 626.646 42.2737 626.631 45.0881C626.615 47.9445 627.139 50.1738 628.201 51.7758C629.264 53.3779 630.761 54.1842 632.693 54.1947C636.6 54.2159 638.57 51.2021 638.602 45.1532C638.635 39.1043 636.656 36.069 632.666 36.0473Z" fill-rule="evenodd"/>
<path clip-path="url(#TextBounds)" d="M656.481 36.6178C656.271 36.6167 655.956 36.6885 655.535 36.8332C655.114 36.978 654.735 37.0494 654.399 37.0476C652.383 37.0366 651.381 35.855 651.394 33.5026C651.409 30.6882 652.74 29.2882 655.387 29.3026C655.681 29.3042 656.143 29.3382 656.772 29.4046C657.402 29.471 658.063 29.5377 658.756 29.6044C659.449 29.6712 660.1 29.7273 660.709 29.7726C661.317 29.8179 661.79 29.8415 662.126 29.8433C662.378 29.8447 662.746 29.8257 663.229 29.7863C663.712 29.7469 664.238 29.6972 664.805 29.6373C665.372 29.5774 665.94 29.5175 666.507 29.4575C667.075 29.3976 667.547 29.3687 667.926 29.3707C670.152 29.3828 671.258 30.7121 671.243 33.3585C671.232 35.4588 670.47 36.5889 668.957 36.7487C668.2 36.8286 667.726 37.057 667.535 37.4341C667.344 37.8111 667.245 38.6717 667.238 40.0159L667.211 44.8676L675.747 39.5581C676.462 39.2259 676.822 38.7868 676.825 38.2407C676.827 37.7786 676.724 37.421 676.516 37.1678C676.307 36.9147 675.888 36.7864 675.258 36.7829C674.501 36.7788 673.936 36.4712 673.561 35.86C673.186 35.2489 673.002 34.4182 673.008 33.3681C673.022 30.7217 674.142 29.4045 676.369 29.4166C676.747 29.4187 677.219 29.4528 677.786 29.5189C678.353 29.585 678.919 29.6511 679.486 29.7171C680.053 29.7832 680.578 29.8386 681.061 29.8832C681.543 29.9279 681.911 29.9509 682.163 29.9522C682.457 29.9538 682.919 29.9353 683.549 29.8968C684.18 29.8582 684.842 29.8093 685.535 29.75C686.229 29.6908 686.88 29.6313 687.489 29.5716C688.099 29.5119 688.572 29.483 688.908 29.4848C691.554 29.4992 692.87 30.9136 692.854 33.728C692.842 36.0804 691.827 37.2511 689.811 37.2401C689.475 37.2383 689.097 37.1627 688.678 37.0134C688.258 36.8641 687.944 36.7889 687.734 36.7877C687.02 36.7839 686.657 37.8951 686.644 40.1214L686.587 50.77C686.574 52.9964 686.925 54.1115 687.64 54.1154C687.85 54.1165 688.165 54.0447 688.586 53.9C689.007 53.7552 689.385 53.6838 689.721 53.6856C691.738 53.6966 692.739 54.8782 692.727 57.2306C692.711 60.045 691.38 61.445 688.734 61.4306C688.398 61.4288 687.925 61.4052 687.317 61.3599C686.708 61.3146 686.057 61.2585 685.364 61.1918C684.671 61.125 684.01 61.0584 683.38 60.9919C682.751 60.9255 682.289 60.8915 681.995 60.8899C681.743 60.8885 681.375 60.918 680.892 60.9784C680.408 61.0388 679.883 61.0989 679.315 61.1589C678.748 61.2188 678.18 61.2682 677.613 61.3071C677.046 61.3461 676.573 61.3645 676.195 61.3624C673.969 61.3503 672.863 60.0211 672.877 57.3747C672.888 55.3164 673.651 54.1863 675.164 53.9845C675.921 53.9046 676.394 53.6761 676.585 53.2991C676.777 52.9221 676.876 52.0615 676.883 50.7173L676.909 45.9286L668.627 51.0504C668.205 51.3002 667.92 51.5612 667.772 51.8334C667.623 52.1057 667.548 52.4098 667.546 52.7459C667.545 53.0819 667.638 53.345 667.826 53.535C668.014 53.7251 668.359 53.8635 668.863 53.9503C670.374 54.1685 671.124 55.3068 671.113 57.3651C671.099 60.0115 669.978 61.3286 667.752 61.3165C667.374 61.3145 666.901 61.2909 666.334 61.2458C665.768 61.2007 665.201 61.1451 664.634 61.079C664.067 61.013 663.543 60.9471 663.06 60.8815C662.577 60.8158 662.21 60.7823 661.958 60.7809C661.622 60.7791 661.149 60.8081 660.539 60.8678C659.93 60.9274 659.279 60.9869 658.585 61.0462C657.892 61.1054 657.23 61.1543 656.599 61.1929C655.969 61.2315 655.507 61.25 655.213 61.2484C652.567 61.234 651.251 59.8196 651.266 57.0051C651.279 54.6528 652.294 53.4821 654.31 53.4931C654.646 53.4949 655.024 53.5705 655.443 53.7198C655.862 53.8691 656.177 53.9443 656.387 53.9454C657.101 53.9493 657.464 52.8381 657.476 50.6118L657.534 39.9632C657.546 37.7368 657.195 36.6217 656.481 36.6178Z" fill-rule="evenodd"/>
<path clip-path="url(#TextBounds)" d="M714.372 39.6421C714.375 39.012 714.589 38.383 715.012 37.7552C714.05 37.0779 712.981 36.736 711.804 36.7296C709.956 36.7195 708.45 37.478 707.287 39.0049C706.123 40.5319 705.534 42.5766 705.521 45.1389C705.506 47.7853 706.104 49.91 707.313 51.5128C708.523 53.1157 710.136 53.9226 712.152 53.9336C714.21 53.9448 715.729 52.8398 716.707 50.6187C717.302 49.2357 717.811 48.3563 718.233 47.9806C718.824 47.4797 719.75 47.2327 721.01 47.2395C722.438 47.2473 723.591 47.6841 724.468 48.5501C725.346 49.416 725.781 50.521 725.774 51.8652C725.758 54.7217 724.358 57.1925 721.575 59.2778C718.791 61.363 715.467 62.3951 711.602 62.3741C706.645 62.3472 702.705 60.803 699.781 57.7415C696.857 54.6801 695.409 50.587 695.437 45.4622C695.465 40.2954 697 36.208 700.04 33.2C703.081 30.192 707.164 28.7019 712.289 28.7298C715.986 28.7499 719.037 29.6381 721.443 31.3945C723.849 33.1509 725.044 35.3733 725.03 38.0617C725.02 39.742 724.467 41.0937 723.369 42.1169C722.271 43.1401 720.861 43.6471 719.139 43.6377C717.711 43.6299 716.558 43.2561 715.68 42.5162C714.801 41.7763 714.366 40.8182 714.372 39.6421Z" fill-rule="evenodd"/>
<path clip-path="url(#TextBounds)" d="M743.835 44.4651C745.516 44.2642 746.789 43.8721 747.654 43.2886C748.518 42.7052 749.173 42.0052 749.618 41.1884C750.064 40.3717 750.426 39.46 750.705 38.4534C750.983 37.4467 751.377 36.4197 751.887 35.3722C752.312 34.4924 752.768 33.6757 753.255 32.9222C753.742 32.1687 754.365 31.5105 755.125 30.9475C755.884 30.3846 756.821 29.9486 757.936 29.6396C759.051 29.3306 760.406 29.1804 762.002 29.1891C762.843 29.1937 763.682 29.3033 764.521 29.5179C765.36 29.7325 766.104 30.0621 766.753 30.5067C767.401 30.9513 767.934 31.5423 768.35 32.2797C768.766 33.0171 768.971 33.8898 768.966 34.898C768.962 35.6121 768.811 36.3044 768.513 36.9749C768.216 37.6454 767.792 38.2417 767.243 38.7638C766.694 39.2859 766.041 39.7025 765.283 40.0134C764.525 40.3243 763.684 40.4773 762.76 40.4723C761.08 40.4631 759.844 39.8683 759.052 38.6878C758.837 39.7368 758.453 40.7639 757.901 41.7691C757.35 42.7743 756.673 43.6317 755.871 44.3415C758.096 44.6477 759.877 45.3295 761.216 46.3869C762.554 47.4444 763.217 49.1073 763.205 51.3756C763.204 51.5857 763.192 51.8061 763.17 52.0371C763.148 52.268 763.136 52.5095 763.134 52.7615C763.132 53.2656 763.224 53.6967 763.411 54.0547C763.598 54.4128 763.923 54.5931 764.385 54.5956C764.595 54.5968 764.92 54.5775 765.362 54.5379C765.803 54.4983 766.129 54.4791 766.339 54.4802C767.053 54.4841 767.682 54.7291 768.225 55.2151C768.769 55.7012 769.037 56.6163 769.029 57.9605C769.025 58.8006 768.811 59.5241 768.387 60.1309C767.964 60.7377 767.415 61.2283 766.741 61.6027C766.067 61.9771 765.341 62.2462 764.563 62.41C763.785 62.5738 763.039 62.6538 762.325 62.6499C759.3 62.6334 757.13 61.897 755.815 60.4406C754.5 58.9842 753.851 56.6597 753.868 53.4673C753.872 52.7952 753.822 52.1858 753.72 51.6391C753.618 51.0925 753.411 50.6188 753.098 50.218C752.785 49.8172 752.314 49.5101 751.685 49.2966C751.056 49.0832 750.238 48.9737 749.23 48.9682C748.389 48.9637 747.549 49.0221 746.708 49.1436C745.867 49.265 744.901 49.3648 743.808 49.4428L743.799 51.0181C743.793 52.2783 743.883 53.1294 744.069 53.5715C744.256 54.0136 744.727 54.2787 745.483 54.3668C746.994 54.5851 747.744 55.7234 747.732 57.7817C747.718 60.4281 746.598 61.7452 744.371 61.7331C743.993 61.7311 743.521 61.7075 742.954 61.6624C742.387 61.6173 741.82 61.5617 741.254 61.4956C740.687 61.4295 740.162 61.3637 739.679 61.298C739.197 61.2324 738.829 61.1989 738.577 61.1975C738.241 61.1957 737.768 61.2246 737.159 61.2843C736.55 61.344 735.898 61.4035 735.205 61.4627C734.511 61.522 733.849 61.5709 733.219 61.6095C732.589 61.6481 732.126 61.6665 731.832 61.6649C729.186 61.6506 727.871 60.2362 727.886 57.4217C727.899 55.0694 728.913 53.8987 730.929 53.9096C731.265 53.9115 731.643 53.987 732.062 54.1363C732.482 54.2856 732.796 54.3609 733.006 54.362C733.72 54.3659 734.084 53.2547 734.096 51.0283L734.154 40.3797C734.166 38.1534 733.815 37.0383 733.101 37.0344C732.891 37.0333 732.575 37.1051 732.154 37.2498C731.733 37.3945 731.355 37.466 731.019 37.4642C729.003 37.4532 728.001 36.2715 728.014 33.9192C728.029 31.1048 729.36 29.7048 732.006 29.7191C732.3 29.7207 732.762 29.7548 733.392 29.8212C734.022 29.8876 734.683 29.9542 735.376 30.021C736.068 30.0878 736.719 30.1438 737.328 30.1892C737.937 30.2345 738.409 30.258 738.745 30.2599C738.997 30.2612 739.365 30.2422 739.848 30.2029C740.332 30.1635 740.857 30.1138 741.425 30.0539C741.992 29.994 742.559 29.9341 743.127 29.8741C743.694 29.8142 744.167 29.7853 744.545 29.7873C746.771 29.7994 747.877 31.1287 747.863 33.7751C747.852 35.8754 747.089 37.0054 745.576 37.1653C744.82 37.2452 744.346 37.4736 744.155 37.8506C743.964 38.2277 743.864 39.0883 743.857 40.4325L743.835 44.4651Z" fill-rule="evenodd"/>
</g>
<path d="M230.346 134.218C230.325 134.35 206.711 91.9148 162.231 66.1057C109.778 35.6701 38.7234 23.784 38.7234 23.784L237.715 27.1196C237.715 27.1196 234.298 110.114 230.346 134.218Z" fill="#dddddd" fill-rule="evenodd" filter="url(#Filter_6)" stroke="none" vectornator:shadowAngle="1.5708" vectornator:shadowColor="#bebebe" vectornator:shadowOffset="1" vectornator:shadowOpacity="0.630858" vectornator:shadowRadius="3"/>
<g opacity="1">
<path d="M55.5786 157.701C69.8315 157.701 84.0669 159.802 98.3432 159.615C124.071 159.279 149.812 157.234 175.546 159.158C188.102 160.097 200.919 159.821 213.515 159.821C217.431 159.821 221.334 160.022 225.248 160.113C226.754 160.148 228.269 160.301 229.773 160.365C229.894 160.371 230.438 160.4 230.29 160.247" fill="#b3b3b3" fill-rule="evenodd" opacity="1" stroke="#a09b9a" stroke-linecap="round" stroke-linejoin="round" stroke-width="1"/>
<path d="M59.0098 170.704C70.7664 170.704 82.5784 169.41 94.3219 169.287C113.284 169.089 132.55 168.943 151.487 169.979C168.197 170.894 184.895 172.05 201.637 172.359C212.201 172.554 222.717 171.236 233.243 171.236" fill="#b3b3b3" fill-rule="evenodd" opacity="1" stroke="#a09b9a" stroke-linecap="round" stroke-linejoin="round" stroke-width="1"/>
<path d="M51.7129 183.132C82.808 180.144 114.33 180.798 145.499 181.642C156.266 181.934 167.047 181.593 177.817 181.816C191.12 182.091 204.358 183.119 217.66 183.383C222.016 183.47 226.383 183.383 230.741 183.383C231.98 183.383 233.22 183.395 234.459 183.383C234.886 183.379 235.311 183.338 235.737 183.327C236.148 183.317 236.839 183.327 236.554 183.327" fill="#b3b3b3" fill-rule="evenodd" opacity="1" stroke="#a09b9a" stroke-linecap="round" stroke-linejoin="round" stroke-width="1"/>
<path d="M143.242 158.381C143.242 163.709 143.192 169.116 143.397 174.439C143.453 175.882 143.564 177.318 143.611 178.762C143.614 178.869 143.583 181.243 143.731 180.681" fill="#b3b3b3" fill-rule="evenodd" opacity="1" stroke="#a09b9a" stroke-linecap="round" stroke-linejoin="round" stroke-width="1"/>
<path d="M155.223 159.917C156.183 165.76 157.64 171.547 158.577 177.373C158.71 178.196 159.337 182.121 159.94 181.65" fill="#b3b3b3" fill-rule="evenodd" opacity="1" stroke="#a09b9a" stroke-linecap="round" stroke-linejoin="round" stroke-width="1"/>
<path d="M170.746 160.891C170.833 162.641 170.826 163.596 171.054 165.207C171.696 169.743 172.36 175.221 173.742 179.671C173.917 180.233 174.552 178.84 174.951 178.418" fill="#b3b3b3" fill-rule="evenodd" opacity="1" stroke="#a09b9a" stroke-linecap="round" stroke-linejoin="round" stroke-width="1"/>
<path d="M183.504 160.712C185.03 165.496 186.679 170.234 188.157 175.036C188.363 175.706 190.32 182.278 190.502 181.512" fill="#b3b3b3" fill-rule="evenodd" opacity="1" stroke="#a09b9a" stroke-linecap="round" stroke-linejoin="round" stroke-width="1"/>
<path d="M199.623 161.119C201.214 167.607 204.516 173.877 209.113 178.612C210.007 179.533 210.85 180.553 211.609 181.598C211.921 182.027 212.1 183.305 212.476 182.936" fill="#b3b3b3" fill-rule="evenodd" opacity="1" stroke="#a09b9a" stroke-linecap="round" stroke-linejoin="round" stroke-width="1"/>
<path d="M218.091 162.77C218.976 168.316 222.286 173.235 225.035 177.955C225.752 179.186 226.207 180.562 226.756 181.883C227.006 182.484 227.561 184.26 227.651 183.612" fill="#b3b3b3" fill-rule="evenodd" opacity="1" stroke="#a09b9a" stroke-linecap="round" stroke-linejoin="round" stroke-width="1"/>
<path d="M132.487 160.582C130.9 163.988 131.268 170.667 130.637 174.537C130.448 175.699 130.368 176.893 130.204 178.062C130.142 178.498 130.293 179.677 129.992 179.366" fill="#b3b3b3" fill-rule="evenodd" opacity="1" stroke="#a09b9a" stroke-linecap="round" stroke-linejoin="round" stroke-width="1"/>
<path d="M117.194 160.943C115.978 162.269 116.585 164.549 116.274 166.35C115.809 169.039 115.143 171.519 114.577 174.159C114.302 175.446 114.067 176.736 113.899 178.043C113.852 178.413 113.662 179.89 113.593 179.475" fill="#b3b3b3" fill-rule="evenodd" opacity="1" stroke="#a09b9a" stroke-linecap="round" stroke-linejoin="round" stroke-width="1"/>
<path d="M102.908 160.652C101.135 163.038 100.87 170.726 99.7336 174.109C99.3978 175.108 98.5094 176.912 98.1404 177.767C98.012 178.064 97.8551 179.465 97.9212 179.101" fill="#b3b3b3" fill-rule="evenodd" opacity="1" stroke="#a09b9a" stroke-linecap="round" stroke-linejoin="round" stroke-width="1"/>
<path d="M86.7063 159.256C85.4987 164.157 83.801 168.611 82.0116 173.279C81.4738 174.681 81.3568 176.143 80.8048 177.533C80.5302 178.224 79.9879 180.358 79.9879 179.61" fill="#b3b3b3" fill-rule="evenodd" opacity="1" stroke="#a09b9a" stroke-linecap="round" stroke-linejoin="round" stroke-width="1"/>
<path d="M71.6826 159.113C68.3319 163.64 66.911 170.398 64.1999 175.476C64.1363 175.595 62.4412 179.969 62.1884 179.969" fill="#b3b3b3" fill-rule="evenodd" opacity="1" stroke="#a09b9a" stroke-linecap="round" stroke-linejoin="round" stroke-width="1"/>
</g>
<path d="M758.332 129.265C752.936 129.729 747.51 129.82 742.099 130.07C740.354 130.15 735.033 131.173 733.376 131.905C726.499 134.941 726.844 144.223 726.53 146.331C726.141 148.931 726.648 151.661 727.424 154.161C729.156 159.747 744.26 159.468 749.652 159.63C752.115 159.704 754.597 159.894 757.058 159.864C757.983 159.853 757.59 159.852 759.209 159.905C759.381 159.91 760.206 159.815 759.957 159.818" fill="#5c1783" fill-rule="evenodd" filter="url(#Filter_7)" stroke="#a6a6a6" stroke-linecap="round" stroke-linejoin="round" stroke-width="12" vectornator:shadowAngle="1.5708" vectornator:shadowColor="#000000" vectornator:shadowOffset="1" vectornator:shadowOpacity="0.630858" vectornator:shadowRadius="3"/>
<path d="M763.23 119.845C762.328 128.659 762.838 137.614 762.82 146.46C762.809 151.493 762.372 156.513 762.638 161.547C762.813 164.867 763.235 168.105 763.279 171.423" fill="none" fill-rule="evenodd" filter="url(#Filter_8)" stroke="#f1f1f1" stroke-linecap="round" stroke-linejoin="round" stroke-width="8" vectornator:shadowAngle="1.5708" vectornator:shadowColor="#000000" vectornator:shadowOffset="1" vectornator:shadowOpacity="0.630858" vectornator:shadowRadius="3"/>
<path d="M745.494 144.009C745.712 144.009 745.569 143.595 745.569 143.847L741.937 145.01C741.937 145.262 744.648 144.478 744.43 144.478C744.43 144.478 743.8 144.717 743.8 144.465L743.8 144.465C743.8 144.213 745.494 144.009 745.494 144.009Z" fill="#5e5e5e" fill-rule="evenodd" opacity="1" stroke="#a6a6a6" stroke-linecap="round" stroke-linejoin="round" stroke-width="12"/>
<g fill="#ffffff" opacity="0" stroke="#e4e4e4" stroke-linecap="round" stroke-linejoin="round" stroke-width="1.38061">
<path clip-path="url(#TextBounds_2)" d="M85.489 90.4666C84.037 90.6976 82.849 93.5356 82.09 94.8556C80.704 97.9246 80.506 99.6076 80.407 102.842C79.879 115.811 89.218 115.811 92.056 109.805C95.554 102.446 91.297 89.5096 85.489 90.4666ZM85.654 94.4596C88.624 92.8426 92.188 100.928 89.713 107.429C88.096 110.531 86.248 110.861 84.664 108.65C82.486 105.185 82.288 96.2746 85.654 94.4596Z" fill-rule="evenodd"/>
<path clip-path="url(#TextBounds_2)" d="M101.296 90.4666C99.844 90.6976 98.656 93.5356 97.897 94.8556C96.511 97.9246 96.313 99.6076 96.214 102.842C95.686 115.811 105.025 115.811 107.863 109.805C111.361 102.446 107.104 89.5096 101.296 90.4666ZM101.461 94.4596C104.431 92.8426 107.995 100.928 105.52 107.429C103.903 110.531 102.055 110.861 100.471 108.65C98.293 105.185 98.095 96.2746 101.461 94.4596Z" fill-rule="evenodd"/>
<path clip-path="url(#TextBounds_2)" d="M117.103 90.4666C115.651 90.6976 114.463 93.5356 113.704 94.8556C112.318 97.9246 112.12 99.6076 112.021 102.842C111.493 115.811 120.832 115.811 123.67 109.805C127.168 102.446 122.911 89.5096 117.103 90.4666ZM117.268 94.4596C120.238 92.8426 123.802 100.928 121.327 107.429C119.71 110.531 117.862 110.861 116.278 108.65C114.1 105.185 113.902 96.2746 117.268 94.4596Z" fill-rule="evenodd"/>
<path clip-path="url(#TextBounds_2)" d="M132.91 90.4666C131.458 90.6976 130.27 93.5356 129.511 94.8556C128.125 97.9246 127.927 99.6076 127.828 102.842C127.3 115.811 136.639 115.811 139.477 109.805C142.975 102.446 138.718 89.5096 132.91 90.4666ZM133.075 94.4596C136.045 92.8426 139.609 100.928 137.134 107.429C135.517 110.531 133.669 110.861 132.085 108.65C129.907 105.185 129.709 96.2746 133.075 94.4596Z" fill-rule="evenodd"/>
<path clip-path="url(#TextBounds_2)" d="M148.717 90.4666C147.265 90.6976 146.077 93.5356 145.318 94.8556C143.932 97.9246 143.734 99.6076 143.635 102.842C143.107 115.811 152.446 115.811 155.284 109.805C158.782 102.446 154.525 89.5096 148.717 90.4666ZM148.882 94.4596C151.852 92.8426 155.416 100.928 152.941 107.429C151.324 110.531 149.476 110.861 147.892 108.65C145.714 105.185 145.516 96.2746 148.882 94.4596Z" fill-rule="evenodd"/>
<path clip-path="url(#TextBounds_2)" d="M166.537 109.343C164.161 96.8356 170.596 90.5326 166.141 90.5326C165.877 90.5326 165.481 90.6316 165.316 90.6646C164.194 90.9616 164.524 95.1196 163.039 96.7696C161.851 97.9906 159.376 100.202 159.343 100.565C158.848 102.215 162.577 101.126 163.567 100.334C163.534 100.829 163.204 108.188 162.808 110.531C162.742 110.927 161.884 113.633 163.336 113.633L166.438 113.633C167.692 113.633 166.966 111.752 166.933 111.422L166.537 109.343Z" fill-rule="evenodd"/>
<path clip-path="url(#TextBounds_2)" d="M176.47 90.4666C175.018 90.6976 173.83 93.5356 173.071 94.8556C171.685 97.9246 171.487 99.6076 171.388 102.842C170.86 115.811 180.199 115.811 183.037 109.805C186.535 102.446 182.278 89.5096 176.47 90.4666ZM176.635 94.4596C179.605 92.8426 183.169 100.928 180.694 107.429C179.077 110.531 177.229 110.861 175.645 108.65C173.467 105.185 173.269 96.2746 176.635 94.4596Z" fill-rule="evenodd"/>
<path clip-path="url(#TextBounds_2)" d="M192.277 90.4666C190.825 90.6976 189.637 93.5356 188.878 94.8556C187.492 97.9246 187.294 99.6076 187.195 102.842C186.667 115.811 196.006 115.811 198.844 109.805C202.342 102.446 198.085 89.5096 192.277 90.4666ZM192.442 94.4596C195.412 92.8426 198.976 100.928 196.501 107.429C194.884 110.531 193.036 110.861 191.452 108.65C189.274 105.185 189.076 96.2746 192.442 94.4596Z" fill-rule="evenodd"/>
</g>
<path d="M156.895 87.0663L191.502 102.117C195.053 103.662 196.68 107.793 195.135 111.344L195.135 111.344C193.591 114.896 189.46 116.523 185.908 114.978L151.302 99.927C147.75 98.3825 139.414 103.307 143.513 100.558L152.698 82.5438C152.964 73.5362 153.344 85.5218 156.895 87.0663Z" fill="#6c5d5d" fill-rule="evenodd" opacity="1" stroke="none"/>
<path d="M84.3164 77.256C84.3164 58.6931 99.3646 43.6449 117.927 43.6449C136.49 43.6449 151.539 58.6931 151.539 77.256C151.539 95.8189 136.49 110.867 117.927 110.867C99.3646 110.867 84.3164 95.8189 84.3164 77.256Z" fill="#d7f9ff" fill-rule="evenodd" opacity="0.75446" stroke="#6c5d5d" stroke-linecap="round" stroke-linejoin="round" stroke-width="3"/>
<path d="M113.223 46.511C120.608 46.5393 119.548 46.0426 119.548 46.0426C133.492 46.0426 141.737 57.9862 141.737 57.9862C141.737 57.9862 124.991 57.4551 118.703 60.1778C85.7622 74.4389 102.182 106.47 95.0536 97.487C78.813 77.0213 92.8702 58.7274 92.8702 58.7274C92.493 58.7763 105.235 46.4803 113.223 46.511Z" fill="#a1dee9" fill-rule="evenodd" opacity="0.651964" stroke="none"/>
<path d="M213.314 45.3647L213.314 45.3647L213.314 45.366L213.314 45.366L213.314 45.3647Z" fill="#a1dee9" fill-rule="evenodd" opacity="0.651964" stroke="none"/>
<path d="M272.912 67.9535L272.967 67.9535L272.967 67.9535L272.912 67.9535Z" fill="#a1dee9" fill-rule="evenodd" opacity="0.651964" stroke="none"/>
</g>
</svg>
