<?xml version="1.0" encoding="UTF-8" standalone="no"?><!-- Generator: Gravit.io --><svg xmlns="http://www.w3.org/2000/svg" xmlns:xlink="http://www.w3.org/1999/xlink" style="isolation:isolate" viewBox="792 185.716 717.031 830.284" width="717.031pt" height="830.284pt"><g><g><defs><filter id="YJwSAtO6SKI5c24737yjjTRg3aa1vVNP" x="-200%" y="-200%" width="400%" height="400%" filterUnits="objectBoundingBox" color-interpolation-filters="sRGB"><feGaussianBlur xmlns="http://www.w3.org/2000/svg" in="SourceGraphic" stdDeviation="0"/><feOffset xmlns="http://www.w3.org/2000/svg" dx="1" dy="2" result="pf_100_offsetBlur"/><feFlood xmlns="http://www.w3.org/2000/svg" flood-color="#720000" flood-opacity="1"/><feComposite xmlns="http://www.w3.org/2000/svg" in2="pf_100_offsetBlur" operator="in" result="pf_100_dropShadow"/><feBlend xmlns="http://www.w3.org/2000/svg" in="SourceGraphic" in2="pf_100_dropShadow" mode="normal"/></filter></defs><g opacity="0.87" filter="url(#YJwSAtO6SKI5c24737yjjTRg3aa1vVNP)"><mask id="_mask_z9Zt2zapICBA35h6L3rpiGlKdlnK8aO6" x="-200%" y="-200%" width="400%" height="400%"><rect x="-200%" y="-200%" width="400%" height="400%" style="fill:white;"/><path d=" M 1480.901 809.215 C 1448.392 772.325 1356.184 786.547 1316.808 796.007 C 1277.431 805.467 1313.529 811.107 1275.289 844.437 C 1266.114 852.435 1219.955 896.864 1210.373 904.911 C 1173.456 935.911 1155.034 988.221 1161.158 994.383 C 1168.261 1001.531 1165.793 1020.075 1195.669 1002.942 C 1217.145 990.625 1225.636 966.206 1257 938.33 C 1306.88 893.997 1331.897 884.093 1331.897 884.093 C 1331.897 884.093 1290.279 915.494 1263.28 942.684 C 1249.91 956.148 1266.216 962.916 1266.018 964.584 C 1276.866 969.675 1293.682 988.594 1305.781 978.065 C 1316.901 968.388 1342.976 937.422 1366.416 924.935 L 1366.416 924.935 C 1366.436 924.924 1366.46 924.93 1366.473 924.949 C 1366.485 924.968 1366.482 924.993 1366.465 925.008 C 1349.602 939.517 1314.352 972.132 1321.529 975.367 C 1323.306 976.168 1331.602 981.962 1340.651 985.679 C 1352.795 990.668 1366.296 993.633 1367.233 992.129 C 1370.678 986.607 1410.071 951.743 1410.071 951.743 L 1383.583 989.329 C 1383.583 989.329 1392.739 1000.504 1406.201 1000.174 C 1420.69 999.818 1439.623 987.955 1441.526 987.995 C 1445.198 988.07 1451.528 972.125 1453.308 969.706 C 1454.435 968.176 1488.644 952.754 1488.644 952.754 C 1488.644 952.754 1502.852 942.063 1502.601 935.893 C 1501.919 919.096 1513.41 846.105 1480.901 809.215 L 1480.901 809.215 Z " fill="black" stroke="none"/></mask><path d=" M 1480.901 809.215 C 1448.392 772.325 1356.184 786.547 1316.808 796.007 C 1277.431 805.467 1313.529 811.107 1275.289 844.437 C 1266.114 852.435 1219.955 896.864 1210.373 904.911 C 1173.456 935.911 1155.034 988.221 1161.158 994.383 C 1168.261 1001.531 1165.793 1020.075 1195.669 1002.942 C 1217.145 990.625 1225.636 966.206 1257 938.33 C 1306.88 893.997 1331.897 884.093 1331.897 884.093 C 1331.897 884.093 1290.279 915.494 1263.28 942.684 C 1249.91 956.148 1266.216 962.916 1266.018 964.584 C 1276.866 969.675 1293.682 988.594 1305.781 978.065 C 1316.901 968.388 1342.976 937.422 1366.416 924.935 L 1366.416 924.935 C 1366.436 924.924 1366.46 924.93 1366.473 924.949 C 1366.485 924.968 1366.482 924.993 1366.465 925.008 C 1349.602 939.517 1314.352 972.132 1321.529 975.367 C 1323.306 976.168 1331.602 981.962 1340.651 985.679 C 1352.795 990.668 1366.296 993.633 1367.233 992.129 C 1370.678 986.607 1410.071 951.743 1410.071 951.743 L 1383.583 989.329 C 1383.583 989.329 1392.739 1000.504 1406.201 1000.174 C 1420.69 999.818 1439.623 987.955 1441.526 987.995 C 1445.198 988.07 1451.528 972.125 1453.308 969.706 C 1454.435 968.176 1488.644 952.754 1488.644 952.754 C 1488.644 952.754 1502.852 942.063 1502.601 935.893 C 1501.919 919.096 1513.41 846.105 1480.901 809.215 L 1480.901 809.215 Z " fill="rgb(254,222,123)" mask="url(#_mask_z9Zt2zapICBA35h6L3rpiGlKdlnK8aO6)" vector-effect="non-scaling-stroke" stroke-width="2" stroke="rgb(252,134,29)" stroke-opacity="100" stroke-linejoin="miter" stroke-linecap="butt" stroke-miterlimit="4"/><path d=" M 1480.901 809.215 C 1448.392 772.325 1356.184 786.547 1316.808 796.007 C 1277.431 805.467 1313.529 811.107 1275.289 844.437 C 1266.114 852.435 1219.955 896.864 1210.373 904.911 C 1173.456 935.911 1155.034 988.221 1161.158 994.383 C 1168.261 1001.531 1165.793 1020.075 1195.669 1002.942 C 1217.145 990.625 1225.636 966.206 1257 938.33 C 1306.88 893.997 1331.897 884.093 1331.897 884.093 C 1331.897 884.093 1290.279 915.494 1263.28 942.684 C 1249.91 956.148 1266.216 962.916 1266.018 964.584 C 1276.866 969.675 1293.682 988.594 1305.781 978.065 C 1316.901 968.388 1342.976 937.422 1366.416 924.935 L 1366.416 924.935 C 1366.436 924.924 1366.46 924.93 1366.473 924.949 C 1366.485 924.968 1366.482 924.993 1366.465 925.008 C 1349.602 939.517 1314.352 972.132 1321.529 975.367 C 1323.306 976.168 1331.602 981.962 1340.651 985.679 C 1352.795 990.668 1366.296 993.633 1367.233 992.129 C 1370.678 986.607 1410.071 951.743 1410.071 951.743 L 1383.583 989.329 C 1383.583 989.329 1392.739 1000.504 1406.201 1000.174 C 1420.69 999.818 1439.623 987.955 1441.526 987.995 C 1445.198 988.07 1451.528 972.125 1453.308 969.706 C 1454.435 968.176 1488.644 952.754 1488.644 952.754 C 1488.644 952.754 1502.852 942.063 1502.601 935.893 C 1501.919 919.096 1513.41 846.105 1480.901 809.215 L 1480.901 809.215 Z " fill="rgb(254,222,123)"/></g></g><g style="mix-blend-mode:luminosity;"><path d=" M 1276.19 890.135 L 1277.707 892.371 L 1274.028 895.074 L 1277.403 900.049 L 1274.707 902.03 L 1271.331 897.055 L 1259.275 905.912 L 1257.819 903.765 L 1259.652 880.476 L 1262.636 878.284 L 1272.511 892.839 L 1276.19 890.135 L 1276.19 890.135 Z  M 1260.573 901.608 L 1269.815 894.819 L 1264.932 887.623 L 1264.932 887.623 Q 1263.496 885.506 1261.857 882.716 L 1261.857 882.716 L 1261.722 882.816 L 1261.722 882.816 Q 1261.872 884.835 1261.793 886.291 L 1261.793 886.291 L 1260.573 901.608 L 1260.573 901.608 Z " fill-rule="evenodd" fill="rgb(181,150,85)"/><path d=" M 1292.371 870.623 L 1292.371 870.623 L 1292.371 870.623 Q 1296.178 876.235 1296.03 880.492 L 1296.03 880.492 L 1296.03 880.492 Q 1295.882 884.75 1291.711 887.814 L 1291.711 887.814 L 1291.711 887.814 Q 1287.709 890.754 1283.7 889.451 L 1283.7 889.451 L 1283.7 889.451 Q 1279.691 888.148 1275.974 882.669 L 1275.974 882.669 L 1275.974 882.669 Q 1272.136 877.013 1272.296 872.791 L 1272.296 872.791 L 1272.296 872.791 Q 1272.455 868.57 1276.593 865.53 L 1276.593 865.53 L 1276.593 865.53 Q 1280.628 862.565 1284.661 863.885 L 1284.661 863.885 L 1284.661 863.885 Q 1288.694 865.204 1292.371 870.623 Z  M 1278.823 880.576 L 1278.823 880.576 L 1278.823 880.576 Q 1282.027 885.3 1284.76 886.52 L 1284.76 886.52 L 1284.76 886.52 Q 1287.494 887.74 1290.275 885.697 L 1290.275 885.697 L 1290.275 885.697 Q 1293.089 883.629 1292.871 880.517 L 1292.871 880.517 L 1292.871 880.517 Q 1292.653 877.405 1289.488 872.741 L 1289.488 872.741 L 1289.488 872.741 Q 1286.324 868.077 1283.589 866.836 L 1283.589 866.836 L 1283.589 866.836 Q 1280.854 865.595 1278.039 867.662 L 1278.039 867.662 L 1278.039 867.662 Q 1275.258 869.705 1275.438 872.779 L 1275.438 872.779 L 1275.438 872.779 Q 1275.618 875.853 1278.823 880.576 Z " fill-rule="evenodd" fill="rgb(181,150,85)"/><path d=" M 1318.467 864.637 L 1319.984 866.872 L 1316.304 869.576 L 1319.679 874.551 L 1316.983 876.531 L 1313.608 871.556 L 1301.552 880.413 L 1300.095 878.266 L 1301.928 854.977 L 1304.912 852.785 L 1314.787 867.34 L 1318.467 864.637 L 1318.467 864.637 Z  M 1302.85 876.11 L 1312.091 869.32 L 1307.209 862.124 L 1307.209 862.124 Q 1305.772 860.007 1304.134 857.217 L 1304.134 857.217 L 1303.998 857.317 L 1303.998 857.317 Q 1304.149 859.336 1304.069 860.792 L 1304.069 860.792 L 1302.85 876.11 L 1302.85 876.11 Z " fill-rule="evenodd" fill="rgb(181,150,85)"/></g></g><linearGradient id="_lgradient_20" x1="0.4999999999999999" y1="0" x2="0.5088380453903585" y2="1.0162157386729147" gradientTransform="matrix(555.425,0,0,622.284,856,185.716)" gradientUnits="userSpaceOnUse"><stop offset="1.3043478260869565%" stop-opacity="1" style="stop-color:rgb(189,76,0)"/><stop offset="63.47826086956522%" stop-opacity="1" style="stop-color:rgb(244,251,192)"/><stop offset="98.69565217391305%" stop-opacity="1" style="stop-color:rgb(255,174,0)"/><stop offset="98.69565217391305%" stop-opacity="1" style="stop-color:rgb(255,153,0)"/></linearGradient><ellipse vector-effect="non-scaling-stroke" cx="1133.7127421758569" cy="496.85804769001487" rx="277.7127421758569" ry="311.1419523099851" fill="url(#_lgradient_20)"/><g><g style="opacity:0.95;"><defs><filter id="lI1CrjG1yGW8gKFsxlEu8JThiBRWgaoG" x="-200%" y="-200%" width="400%" height="400%" filterUnits="objectBoundingBox" color-interpolation-filters="sRGB"><feGaussianBlur xmlns="http://www.w3.org/2000/svg" in="SourceGraphic" stdDeviation="2.5"/><feOffset xmlns="http://www.w3.org/2000/svg" dx="-4" dy="0" result="pf_100_offsetBlur"/><feFlood xmlns="http://www.w3.org/2000/svg" flood-color="#000000" flood-opacity="1"/><feComposite xmlns="http://www.w3.org/2000/svg" in2="pf_100_offsetBlur" operator="in" result="pf_100_dropShadow"/><feBlend xmlns="http://www.w3.org/2000/svg" in="SourceGraphic" in2="pf_100_dropShadow" mode="normal"/></filter></defs><g opacity="0.82" filter="url(#lI1CrjG1yGW8gKFsxlEu8JThiBRWgaoG)"><mask id="_mask_7GNd3dvoeCTBSzYlNwFtAc9BfO7BdbyX" x="-200%" y="-200%" width="400%" height="400%"><rect x="-200%" y="-200%" width="400%" height="400%" style="fill:white;"/><path d=" M 936.778 602.828 C 845.222 597.869 844.757 563.995 836.37 482.329 C 827.984 400.663 963.245 373 1126.462 373 C 1289.678 373 1425.871 395.186 1425.871 482.329 C 1425.871 498.896 1433.456 595.294 1332.246 602.828 C 1231.036 610.362 1191.185 564.879 1141.371 564.195 C 1091.556 563.512 1028.334 607.787 936.778 602.828 L 936.778 602.828 Z " fill="black" stroke="none"/></mask><path d=" M 936.778 602.828 C 845.222 597.869 844.757 563.995 836.37 482.329 C 827.984 400.663 963.245 373 1126.462 373 C 1289.678 373 1425.871 395.186 1425.871 482.329 C 1425.871 498.896 1433.456 595.294 1332.246 602.828 C 1231.036 610.362 1191.185 564.879 1141.371 564.195 C 1091.556 563.512 1028.334 607.787 936.778 602.828 L 936.778 602.828 Z " fill="rgb(0,0,0)" mask="url(#_mask_7GNd3dvoeCTBSzYlNwFtAc9BfO7BdbyX)" vector-effect="non-scaling-stroke" stroke-width="16" stroke="rgb(225,14,137)" stroke-opacity="100" stroke-linejoin="miter" stroke-linecap="butt" stroke-miterlimit="4"/><path d=" M 936.778 602.828 C 845.222 597.869 844.757 563.995 836.37 482.329 C 827.984 400.663 963.245 373 1126.462 373 C 1289.678 373 1425.871 395.186 1425.871 482.329 C 1425.871 498.896 1433.456 595.294 1332.246 602.828 C 1231.036 610.362 1191.185 564.879 1141.371 564.195 C 1091.556 563.512 1028.334 607.787 936.778 602.828 L 936.778 602.828 Z " fill="rgb(0,0,0)"/></g></g><g><path d=" M 1315.625 538.708 L 1311.738 560.586 L 1296.241 557.364 L 1291.334 584.986 L 1264.743 579.456 L 1269.65 551.835 L 1214.706 540.41 L 1218.188 520.81 L 1289.917 446.491 L 1315.011 451.709 L 1300.128 535.486 L 1315.625 538.708 L 1315.625 538.708 Z  M 1242.543 523.511 L 1273.537 529.956 L 1277.553 507.348 L 1277.553 507.348 Q 1278.557 501.697 1280.908 491.031 L 1280.908 491.031 L 1280.908 491.031 Q 1283.26 480.366 1283.831 478.689 L 1283.831 478.689 L 1283.127 478.542 L 1283.127 478.542 Q 1278.541 485.34 1272.699 491.498 L 1272.699 491.498 L 1242.543 523.511 L 1242.543 523.511 Z " fill-rule="evenodd" fill="rgb(0,0,0)"/></g><path d=" M 959.859 535.899 L 965.784 557.557 L 981.888 552.751 L 989.369 580.094 L 1017.002 571.848 L 1009.522 544.506 L 1066.619 527.469 L 1061.311 508.067 L 979.353 440.381 L 953.275 448.163 L 975.963 531.094 L 959.859 535.899 L 959.859 535.899 Z  M 1035.805 513.237 L 1003.597 522.848 L 997.474 500.468 L 997.474 500.468 Q 995.944 494.873 992.573 484.362 L 992.573 484.362 L 992.573 484.362 Q 989.202 473.85 988.459 472.217 L 988.459 472.217 L 989.191 471.999 L 989.191 471.999 Q 994.601 478.388 1001.284 484.007 L 1001.284 484.007 L 1035.805 513.237 L 1035.805 513.237 Z " fill-rule="evenodd" fill="rgb(0,0,0)"/></g><g><radialGradient id="_rgradient_10" fx="0.5000459244722367" fy="0.8878481491273315" cx="0.5000459244722367" cy="0.8878481491273315" r="1" gradientTransform="matrix(88.751,2.393,-4.255,117.958,1091.107,641.834)" gradientUnits="userSpaceOnUse"><stop offset="0%" stop-opacity="1" style="stop-color:rgb(100,88,88)"/><stop offset="100%" stop-opacity="1" style="stop-color:rgb(0,0,0)"/></radialGradient><path d=" M 1138.717 643.118 C 1161.427 643.73 1178.907 670.593 1177.899 698.526 C 1176.119 731.478 1156.428 766.232 1134.479 760.592 C 1106.781 762.412 1084.015 720.376 1090 690 C 1091.008 662.066 1116.007 642.505 1138.717 643.118 Z " fill="url(#_rgradient_10)"/><defs><filter id="k1OvsmieUAnbXAhVGWK87b63cDHgYXSf" x="-200%" y="-200%" width="400%" height="400%" filterUnits="objectBoundingBox" color-interpolation-filters="sRGB"><feGaussianBlur xmlns="http://www.w3.org/2000/svg" in="SourceGraphic" stdDeviation="2.146804531419514"/><feOffset xmlns="http://www.w3.org/2000/svg" dx="0" dy="3" result="pf_100_offsetBlur"/><feFlood xmlns="http://www.w3.org/2000/svg" flood-color="#000000" flood-opacity="0.66"/><feComposite xmlns="http://www.w3.org/2000/svg" in2="pf_100_offsetBlur" operator="in" result="pf_100_dropShadow"/><feBlend xmlns="http://www.w3.org/2000/svg" in="SourceGraphic" in2="pf_100_dropShadow" mode="normal"/></filter></defs><g filter="url(#k1OvsmieUAnbXAhVGWK87b63cDHgYXSf)"><linearGradient id="_lgradient_21" x1="1.0830365610544415" y1="0.5304715776027257" x2="-0.16897149050651916" y2="0.516560377029825"><stop offset="1.7391304347826086%" stop-opacity="1" style="stop-color:rgb(0,0,0)"/><stop offset="41.82887886501542%" stop-opacity="1" style="stop-color:rgb(238,0,0)"/><stop offset="57.73362091084463%" stop-opacity="1" style="stop-color:rgb(157,0,0)"/><stop offset="93.04347826086956%" stop-opacity="1" style="stop-color:rgb(0,0,0)"/></linearGradient><path d=" M 1090 704.487 C 1091.718 653.535 1109.491 641.88 1134.53 638.973 C 1167.363 635.162 1177.247 667.867 1179.06 704.487 C 1180.846 740.549 1159.107 770 1134.53 770 C 1109.953 770 1090 740.644 1090 704.487 Z " fill="none" vector-effect="non-scaling-stroke" stroke-width="9" stroke="url(#_lgradient_21)" stroke-linejoin="miter" stroke-linecap="square" stroke-miterlimit="3"/></g></g><g><g opacity="0.15"><path d=" M 870.817 431.058 C 888.175 402.602 938.355 380.467 1011.428 373.603 C 1084.501 366.739 1064.972 364 1135 364 C 1170.903 364 1198.777 368 1248.827 368 C 1298.876 368 1354.522 397.017 1388.457 431.058 C 1422.392 465.099 1403.324 559.136 1403.324 559.136 C 1403.324 559.136 1404.126 446.405 1287.291 405.439 C 1255.068 394.141 1178.33 508.778 1126.804 490.063 C 1067.517 468.528 1032.471 399.502 994.893 400.007 C 881.397 401.53 861.544 593.455 861.544 569.621 C 861.544 560.612 853.459 459.515 870.817 431.058 L 870.817 431.058 Z " fill="rgb(252,134,29)"/></g></g></svg>