<?xml version="1.0" encoding="UTF-8" standalone="no"?><!-- Generator: Gravit.io --><svg xmlns="http://www.w3.org/2000/svg" xmlns:xlink="http://www.w3.org/1999/xlink" style="isolation:isolate" viewBox="-1.5 32.5 292 208" width="292pt" height="208pt"><path d=" M 89.694 46.792 L 120.442 47.191 C 120.788 47.195 121.065 47.48 121.06 47.825 L 120.947 56.572 C 120.942 56.918 120.658 57.194 120.313 57.19 L 89.564 56.791 C 89.218 56.786 88.941 56.502 88.946 56.156 L 89.059 47.409 C 89.064 47.064 89.348 46.787 89.694 46.792 Z " fill="rgb(255,255,0)"/><mask id="_mask_QnRX3EELrVw4DfRUF4AtxD2gD1kPXY5z" x="-200%" y="-200%" width="400%" height="400%"><rect x="-200%" y="-200%" width="400%" height="400%" style="fill:white;"/><path d=" M 89.694 46.792 L 120.442 47.191 C 120.788 47.195 121.065 47.48 121.06 47.825 L 120.947 56.572 C 120.942 56.918 120.658 57.194 120.313 57.19 L 89.564 56.791 C 89.218 56.786 88.941 56.502 88.946 56.156 L 89.059 47.409 C 89.064 47.064 89.348 46.787 89.694 46.792 Z " fill="black" stroke="none"/></mask><path d=" M 89.694 46.792 L 120.442 47.191 C 120.788 47.195 121.065 47.48 121.06 47.825 L 120.947 56.572 C 120.942 56.918 120.658 57.194 120.313 57.19 L 89.564 56.791 C 89.218 56.786 88.941 56.502 88.946 56.156 L 89.059 47.409 C 89.064 47.064 89.348 46.787 89.694 46.792 Z " fill="none" mask="url(#_mask_QnRX3EELrVw4DfRUF4AtxD2gD1kPXY5z)" vector-effect="non-scaling-stroke" stroke-width="2" stroke="rgb(0,0,0)" stroke-linejoin="miter" stroke-linecap="square" stroke-miterlimit="2"/><path d=" M 89.694 46.792 L 120.442 47.191 C 120.788 47.195 121.065 47.48 121.06 47.825 L 120.947 56.572 C 120.942 56.918 120.658 57.194 120.313 57.19 L 89.564 56.791 C 89.218 56.786 88.941 56.502 88.946 56.156 L 89.059 47.409 C 89.064 47.064 89.348 46.787 89.694 46.792 Z " fill="none"/><g><path d=" M 85 228 L 148 228 L 148 232 L 85 232 L 85 228 L 85 228 Z  M 269 72 L 273.268 72 L 273.268 75.25 L 282.536 75.25 C 286.104 75.25 289 78.146 289 81.714 L 289 98.786 C 289 102.354 286.104 105.25 282.536 105.25 L 273.268 105.25 L 273.268 111.63 L 269 111.63 L 269 139.37 L 272.912 139.37 L 272.912 144 L 282.536 144 C 286.104 144 289 146.896 289 150.464 L 289 167.536 C 289 171.104 286.104 174 282.536 174 L 272.912 174 L 272.912 179 L 269 179 L 269 189 L 273.268 189 C 275.052 189 276.5 190.448 276.5 192.232 L 276.5 200.768 C 276.5 202.552 275.052 204 273.268 204 L 269 204 C 268.996 215.039 260.033 224 248.993 224 L 225.6 224 L 231.554 234.633 C 232.904 237.043 231.757 239 228.995 239 L 75.005 239 C 72.243 239 70.833 236.918 71.859 234.353 L 76 224 L 49.007 224 C 37.965 224 29 215.035 29 203.993 L 29 183.986 C 28.816 183.995 28.631 184 28.445 184 L 19.555 184 C 14.977 184 11.075 181.079 9.615 177 L 9.514 177 C 4.263 177 0 172.737 0 167.486 L 0 121.514 C 0 116.331 4.153 112.111 9.311 112.003 C 10.453 107.409 14.609 104 19.555 104 L 28.445 104 C 28.631 104 28.816 104.005 29 104.014 L 29 84.007 C 29 72.965 37.965 64 49.007 64 L 99 64 L 99 59.19 L 96.528 59.19 L 96.528 52.478 L 85 52.478 L 85 51.478 L 96.528 51.478 L 96.528 44 L 102.607 44 C 106.556 37.979 113.366 34 121.098 34 L 246.902 34 C 259.098 34 269 43.902 269 56.098 L 269 72 L 269 72 Z  M 154 228 L 217 228 L 217 232 L 154 232 L 154 228 Z " fill-rule="evenodd" fill="none" vector-effect="non-scaling-stroke" stroke-width="3" stroke="rgb(85,85,164)" stroke-linejoin="miter" stroke-linecap="butt" stroke-miterlimit="4"/></g><mask id="_mask_zHFRaqTQrdS7FGifmyLDZtpxVK4Nj9cd" x="-200%" y="-200%" width="400%" height="400%"><rect x="-200%" y="-200%" width="400%" height="400%" style="fill:white;"/><path d=" M 126.772 46.792 L 192.484 46.792 C 197.337 46.792 201.278 50.732 201.278 55.585 L 201.278 77.723 C 201.278 82.577 197.337 86.517 192.484 86.517 L 126.772 86.517 C 121.918 86.517 117.978 82.577 117.978 77.723 L 117.978 55.585 C 117.978 50.732 121.918 46.792 126.772 46.792 Z " fill="black" stroke="none"/></mask><path d=" M 126.772 46.792 L 192.484 46.792 C 197.337 46.792 201.278 50.732 201.278 55.585 L 201.278 77.723 C 201.278 82.577 197.337 86.517 192.484 86.517 L 126.772 86.517 C 121.918 86.517 117.978 82.577 117.978 77.723 L 117.978 55.585 C 117.978 50.732 121.918 46.792 126.772 46.792 Z " fill="rgb(255,255,0)" mask="url(#_mask_zHFRaqTQrdS7FGifmyLDZtpxVK4Nj9cd)" vector-effect="non-scaling-stroke" stroke-width="8" stroke="rgb(255,255,0)" stroke-linejoin="miter" stroke-linecap="square" stroke-miterlimit="2"/><path d=" M 126.772 46.792 L 192.484 46.792 C 197.337 46.792 201.278 50.732 201.278 55.585 L 201.278 77.723 C 201.278 82.577 197.337 86.517 192.484 86.517 L 126.772 86.517 C 121.918 86.517 117.978 82.577 117.978 77.723 L 117.978 55.585 C 117.978 50.732 121.918 46.792 126.772 46.792 Z " fill="rgb(255,255,0)"/><path d=" M 136.65 59.357 L 136.65 71.492 L 134.086 71.492 L 134.086 64.47 L 134.11 63.316 L 134.152 62.054 L 134.152 62.054 Q 133.513 62.694 133.264 62.893 L 133.264 62.893 L 131.869 64.013 L 130.632 62.47 L 134.542 59.357 L 136.65 59.357 L 136.65 59.357 Z  M 140.303 70.305 L 140.303 70.305 L 140.303 70.305 Q 140.303 69.608 140.676 69.251 L 140.676 69.251 L 140.676 69.251 Q 141.05 68.894 141.764 68.894 L 141.764 68.894 L 141.764 68.894 Q 142.453 68.894 142.83 69.26 L 142.83 69.26 L 142.83 69.26 Q 143.208 69.625 143.208 70.305 L 143.208 70.305 L 143.208 70.305 Q 143.208 70.961 142.826 71.339 L 142.826 71.339 L 142.826 71.339 Q 142.444 71.717 141.764 71.717 L 141.764 71.717 L 141.764 71.717 Q 141.066 71.717 140.685 71.347 L 140.685 71.347 L 140.685 71.347 Q 140.303 70.978 140.303 70.305 Z  M 153.343 69.334 L 153.343 71.492 L 144.86 71.492 L 144.86 69.708 L 147.906 66.628 L 147.906 66.628 Q 149.259 65.242 149.674 64.707 L 149.674 64.707 L 149.674 64.707 Q 150.089 64.171 150.272 63.715 L 150.272 63.715 L 150.272 63.715 Q 150.455 63.258 150.455 62.768 L 150.455 62.768 L 150.455 62.768 Q 150.455 62.038 150.052 61.681 L 150.052 61.681 L 150.052 61.681 Q 149.649 61.324 148.977 61.324 L 148.977 61.324 L 148.977 61.324 Q 148.272 61.324 147.607 61.648 L 147.607 61.648 L 147.607 61.648 Q 146.943 61.971 146.221 62.569 L 146.221 62.569 L 144.827 60.917 L 144.827 60.917 Q 145.723 60.154 146.313 59.838 L 146.313 59.838 L 146.313 59.838 Q 146.902 59.523 147.599 59.353 L 147.599 59.353 L 147.599 59.353 Q 148.296 59.182 149.16 59.182 L 149.16 59.182 L 149.16 59.182 Q 150.297 59.182 151.169 59.597 L 151.169 59.597 L 151.169 59.597 Q 152.04 60.012 152.522 60.76 L 152.522 60.76 L 152.522 60.76 Q 153.003 61.507 153.003 62.47 L 153.003 62.47 L 153.003 62.47 Q 153.003 63.308 152.708 64.043 L 152.708 64.043 L 152.708 64.043 Q 152.414 64.777 151.795 65.549 L 151.795 65.549 L 151.795 65.549 Q 151.177 66.321 149.616 67.749 L 149.616 67.749 L 148.056 69.218 L 148.056 69.334 L 153.343 69.334 L 153.343 69.334 Z  M 164.79 62.038 L 164.79 62.038 L 164.79 62.038 Q 166.434 62.038 167.363 63.32 L 167.363 63.32 L 167.363 63.32 Q 168.293 64.603 168.293 66.836 L 168.293 66.836 L 168.293 66.836 Q 168.293 69.135 167.334 70.397 L 167.334 70.397 L 167.334 70.397 Q 166.376 71.658 164.724 71.658 L 164.724 71.658 L 164.724 71.658 Q 163.088 71.658 162.159 70.471 L 162.159 70.471 L 161.984 70.471 L 161.561 71.492 L 159.627 71.492 L 159.627 58.576 L 162.159 58.576 L 162.159 61.581 L 162.159 61.581 Q 162.159 62.154 162.059 63.416 L 162.059 63.416 L 162.159 63.416 L 162.159 63.416 Q 163.047 62.038 164.79 62.038 Z  M 163.977 64.063 L 163.977 64.063 L 163.977 64.063 Q 163.039 64.063 162.607 64.64 L 162.607 64.64 L 162.607 64.64 Q 162.175 65.217 162.159 66.545 L 162.159 66.545 L 162.159 66.819 L 162.159 66.819 Q 162.159 68.313 162.603 68.961 L 162.603 68.961 L 162.603 68.961 Q 163.047 69.608 164.01 69.608 L 164.01 69.608 L 164.01 69.608 Q 164.79 69.608 165.251 68.89 L 165.251 68.89 L 165.251 68.89 Q 165.711 68.172 165.711 66.803 L 165.711 66.803 L 165.711 66.803 Q 165.711 65.433 165.247 64.748 L 165.247 64.748 L 165.247 64.748 Q 164.782 64.063 163.977 64.063 Z  M 178.046 71.492 L 176.278 71.492 L 175.789 70.231 L 175.722 70.231 L 175.722 70.231 Q 175.083 71.036 174.407 71.347 L 174.407 71.347 L 174.407 71.347 Q 173.73 71.658 172.643 71.658 L 172.643 71.658 L 172.643 71.658 Q 171.306 71.658 170.538 70.895 L 170.538 70.895 L 170.538 70.895 Q 169.771 70.131 169.771 68.72 L 169.771 68.72 L 169.771 68.72 Q 169.771 67.242 170.804 66.541 L 170.804 66.541 L 170.804 66.541 Q 171.837 65.84 173.921 65.765 L 173.921 65.765 L 175.531 65.715 L 175.531 65.308 L 175.531 65.308 Q 175.531 63.897 174.087 63.897 L 174.087 63.897 L 174.087 63.897 Q 172.975 63.897 171.472 64.57 L 171.472 64.57 L 170.634 62.86 L 170.634 62.86 Q 172.236 62.021 174.187 62.021 L 174.187 62.021 L 174.187 62.021 Q 176.054 62.021 177.05 62.835 L 177.05 62.835 L 177.05 62.835 Q 178.046 63.648 178.046 65.308 L 178.046 65.308 L 178.046 71.492 L 178.046 71.492 Z  M 175.531 67.956 L 175.531 67.193 L 174.552 67.226 L 174.552 67.226 Q 173.448 67.259 172.908 67.624 L 172.908 67.624 L 172.908 67.624 Q 172.369 67.99 172.369 68.737 L 172.369 68.737 L 172.369 68.737 Q 172.369 69.807 173.597 69.807 L 173.597 69.807 L 173.597 69.807 Q 174.477 69.807 175.004 69.301 L 175.004 69.301 L 175.004 69.301 Q 175.531 68.795 175.531 67.956 L 175.531 67.956 L 175.531 67.956 Z  M 185.833 62.038 L 185.833 62.038 L 185.833 62.038 Q 186.347 62.038 186.688 62.113 L 186.688 62.113 L 186.497 64.487 L 186.497 64.487 Q 186.19 64.404 185.75 64.404 L 185.75 64.404 L 185.75 64.404 Q 184.538 64.404 183.861 65.026 L 183.861 65.026 L 183.861 65.026 Q 183.185 65.649 183.185 66.769 L 183.185 66.769 L 183.185 71.492 L 180.653 71.492 L 180.653 62.212 L 182.57 62.212 L 182.944 63.773 L 183.068 63.773 L 183.068 63.773 Q 183.5 62.992 184.235 62.515 L 184.235 62.515 L 184.235 62.515 Q 184.969 62.038 185.833 62.038 Z " fill-rule="evenodd" fill="rgb(0,0,0)"/><path d=" M 123.452 128.93 L 123.452 127.25 L 127.748 127.25 L 127.748 132.184 L 127.748 132.184 Q 126.704 132.483 125.782 132.604 L 125.782 132.604 L 125.782 132.604 Q 124.859 132.724 123.896 132.724 L 123.896 132.724 L 123.896 132.724 Q 121.445 132.724 120.152 131.458 L 120.152 131.458 L 120.152 131.458 Q 118.859 130.192 118.859 127.823 L 118.859 127.823 L 118.859 127.823 Q 118.859 125.519 120.359 124.23 L 120.359 124.23 L 120.359 124.23 Q 121.859 122.941 124.519 122.941 L 124.519 122.941 L 124.519 122.941 Q 126.185 122.941 127.733 123.527 L 127.733 123.527 L 126.97 125.141 L 126.97 125.141 Q 125.785 124.621 124.504 124.621 L 124.504 124.621 L 124.504 124.621 Q 123.015 124.621 122.119 125.499 L 122.119 125.499 L 122.119 125.499 Q 121.222 126.378 121.222 127.862 L 121.222 127.862 L 121.222 127.862 Q 121.222 129.411 121.945 130.228 L 121.945 130.228 L 121.945 130.228 Q 122.667 131.045 124.045 131.045 L 124.045 131.045 L 124.045 131.045 Q 124.763 131.045 125.504 130.915 L 125.504 130.915 L 125.504 128.93 L 123.452 128.93 L 123.452 128.93 Z  M 134.77 125.18 L 134.77 125.18 L 134.77 125.18 Q 135.229 125.18 135.533 125.239 L 135.533 125.239 L 135.363 127.101 L 135.363 127.101 Q 135.089 127.035 134.696 127.035 L 134.696 127.035 L 134.696 127.035 Q 133.615 127.035 133.011 127.524 L 133.011 127.524 L 133.011 127.524 Q 132.407 128.012 132.407 128.89 L 132.407 128.89 L 132.407 132.594 L 130.148 132.594 L 130.148 125.317 L 131.859 125.317 L 132.192 126.541 L 132.304 126.541 L 132.304 126.541 Q 132.689 125.929 133.344 125.555 L 133.344 125.555 L 133.344 125.555 Q 134 125.18 134.77 125.18 Z  M 144.637 132.594 L 142.903 132.594 L 142.6 131.663 L 142.481 131.663 L 142.481 131.663 Q 142.118 132.171 141.452 132.448 L 141.452 132.448 L 141.452 132.448 Q 140.785 132.724 139.933 132.724 L 139.933 132.724 L 139.933 132.724 Q 138.474 132.724 137.733 132.037 L 137.733 132.037 L 137.733 132.037 Q 136.992 131.351 136.992 130.062 L 136.992 130.062 L 136.992 125.317 L 139.252 125.317 L 139.252 129.567 L 139.252 129.567 Q 139.252 130.355 139.57 130.749 L 139.57 130.749 L 139.57 130.749 Q 139.889 131.143 140.585 131.143 L 140.585 131.143 L 140.585 131.143 Q 141.533 131.143 141.955 130.586 L 141.955 130.586 L 141.955 130.586 Q 142.377 130.03 142.377 128.741 L 142.377 128.741 L 142.377 125.317 L 144.637 125.317 L 144.637 132.594 L 144.637 132.594 Z  M 154.651 127.849 L 154.651 132.594 L 152.392 132.594 L 152.392 128.344 L 152.392 128.344 Q 152.392 127.556 152.073 127.162 L 152.073 127.162 L 152.073 127.162 Q 151.755 126.769 151.059 126.769 L 151.059 126.769 L 151.059 126.769 Q 150.111 126.769 149.688 127.325 L 149.688 127.325 L 149.688 127.325 Q 149.266 127.882 149.266 129.17 L 149.266 129.17 L 149.266 132.594 L 147.007 132.594 L 147.007 125.317 L 148.733 125.317 L 149.037 126.248 L 149.162 126.248 L 149.162 126.248 Q 149.54 125.721 150.203 125.451 L 150.203 125.451 L 150.203 125.451 Q 150.866 125.18 151.711 125.18 L 151.711 125.18 L 151.711 125.18 Q 153.155 125.18 153.903 125.867 L 153.903 125.867 L 153.903 125.867 Q 154.651 126.554 154.651 127.849 L 154.651 127.849 L 154.651 127.849 Z  M 159.599 132.724 L 159.599 132.724 L 159.599 132.724 Q 158.14 132.724 157.307 131.728 L 157.307 131.728 L 157.307 131.728 Q 156.473 130.732 156.473 128.969 L 156.473 128.969 L 156.473 128.969 Q 156.473 127.179 157.321 126.18 L 157.321 126.18 L 157.321 126.18 Q 158.17 125.18 159.658 125.18 L 159.658 125.18 L 159.658 125.18 Q 161.221 125.18 162.044 126.248 L 162.044 126.248 L 162.118 126.248 L 162.118 126.248 Q 161.947 125.434 161.947 124.796 L 161.947 124.796 L 161.947 122.466 L 164.214 122.466 L 164.214 132.594 L 162.481 132.594 L 162.044 131.65 L 161.947 131.65 L 161.947 131.65 Q 161.177 132.724 159.599 132.724 Z  M 160.392 131.143 L 160.392 131.143 L 160.392 131.143 Q 161.258 131.143 161.662 130.7 L 161.662 130.7 L 161.662 130.7 Q 162.066 130.257 162.103 129.196 L 162.103 129.196 L 162.103 128.982 L 162.103 128.982 Q 162.103 127.81 161.692 127.302 L 161.692 127.302 L 161.692 127.302 Q 161.281 126.795 160.355 126.795 L 160.355 126.795 L 160.355 126.795 Q 159.599 126.795 159.181 127.358 L 159.181 127.358 L 159.181 127.358 Q 158.762 127.921 158.762 128.995 L 158.762 128.995 L 158.762 128.995 Q 158.762 130.069 159.184 130.606 L 159.184 130.606 L 159.184 130.606 Q 159.607 131.143 160.392 131.143 Z  M 171.154 125.317 L 171.154 126.808 L 169.199 126.808 L 169.199 132.594 L 166.94 132.594 L 166.94 126.808 L 165.695 126.808 L 165.695 125.851 L 166.94 125.317 L 166.94 124.783 L 166.94 124.783 Q 166.94 123.54 167.636 122.968 L 167.636 122.968 L 167.636 122.968 Q 168.332 122.395 169.866 122.395 L 169.866 122.395 L 169.866 122.395 Q 171.036 122.395 171.947 122.701 L 171.947 122.701 L 171.369 124.159 L 171.369 124.159 Q 170.688 123.97 170.11 123.97 L 170.11 123.97 L 170.11 123.97 Q 169.629 123.97 169.414 124.22 L 169.414 124.22 L 169.414 124.22 Q 169.199 124.471 169.199 124.862 L 169.199 124.862 L 169.199 125.317 L 171.154 125.317 L 171.154 125.317 Z  M 174.251 128.943 L 174.251 128.943 L 174.251 128.943 Q 174.251 130.023 174.654 130.576 L 174.654 130.576 L 174.654 130.576 Q 175.058 131.13 175.969 131.13 L 175.969 131.13 L 175.969 131.13 Q 176.873 131.13 177.269 130.58 L 177.269 130.58 L 177.269 130.58 Q 177.665 130.03 177.665 128.943 L 177.665 128.943 L 177.665 128.943 Q 177.665 127.862 177.265 127.322 L 177.265 127.322 L 177.265 127.322 Q 176.865 126.782 175.954 126.782 L 175.954 126.782 L 175.954 126.782 Q 175.051 126.782 174.651 127.319 L 174.651 127.319 L 174.651 127.319 Q 174.251 127.856 174.251 128.943 Z  M 179.976 128.943 L 179.976 128.943 L 179.976 128.943 Q 179.976 130.719 178.91 131.722 L 178.91 131.722 L 178.91 131.722 Q 177.843 132.724 175.94 132.724 L 175.94 132.724 L 175.94 132.724 Q 174.747 132.724 173.836 132.265 L 173.836 132.265 L 173.836 132.265 Q 172.925 131.806 172.436 130.947 L 172.436 130.947 L 172.436 130.947 Q 171.947 130.088 171.947 128.943 L 171.947 128.943 L 171.947 128.943 Q 171.947 127.159 173.006 126.17 L 173.006 126.17 L 173.006 126.17 Q 174.066 125.18 175.984 125.18 L 175.984 125.18 L 175.984 125.18 Q 177.177 125.18 178.088 125.636 L 178.088 125.636 L 178.088 125.636 Q 178.999 126.092 179.488 126.944 L 179.488 126.944 L 179.488 126.944 Q 179.976 127.797 179.976 128.943 Z  M 187.621 130.433 L 187.621 130.433 L 187.621 130.433 Q 187.621 131.553 186.736 132.138 L 186.736 132.138 L 186.736 132.138 Q 185.85 132.724 184.087 132.724 L 184.087 132.724 L 184.087 132.724 Q 183.184 132.724 182.547 132.617 L 182.547 132.617 L 182.547 132.617 Q 181.91 132.509 181.354 132.301 L 181.354 132.301 L 181.354 130.661 L 181.354 130.661 Q 181.984 130.921 182.773 131.097 L 182.773 131.097 L 182.773 131.097 Q 183.562 131.273 184.162 131.273 L 184.162 131.273 L 184.162 131.273 Q 185.391 131.273 185.391 130.648 L 185.391 130.648 L 185.391 130.648 Q 185.391 130.414 185.228 130.267 L 185.228 130.267 L 185.228 130.267 Q 185.065 130.121 184.665 129.935 L 184.665 129.935 L 184.665 129.935 Q 184.265 129.75 183.599 129.502 L 183.599 129.502 L 183.599 129.502 Q 182.643 129.151 182.195 128.851 L 182.195 128.851 L 182.195 128.851 Q 181.747 128.552 181.543 128.165 L 181.543 128.165 L 181.543 128.165 Q 181.339 127.777 181.339 127.211 L 181.339 127.211 L 181.339 127.211 Q 181.339 126.241 182.195 125.711 L 182.195 125.711 L 182.195 125.711 Q 183.05 125.18 184.621 125.18 L 184.621 125.18 L 184.621 125.18 Q 186.117 125.18 187.532 125.753 L 187.532 125.753 L 186.85 127.185 L 186.85 127.185 Q 186.228 126.951 185.687 126.801 L 185.687 126.801 L 185.687 126.801 Q 185.147 126.651 184.584 126.651 L 184.584 126.651 L 184.584 126.651 Q 183.584 126.651 183.584 127.127 L 183.584 127.127 L 183.584 127.127 Q 183.584 127.393 183.906 127.589 L 183.906 127.589 L 183.906 127.589 Q 184.228 127.784 185.317 128.168 L 185.317 128.168 L 185.317 128.168 Q 186.287 128.513 186.739 128.812 L 186.739 128.812 L 186.739 128.812 Q 187.191 129.112 187.406 129.502 L 187.406 129.502 L 187.406 129.502 Q 187.621 129.893 187.621 130.433 Z " fill-rule="evenodd" fill="rgb(96,125,139)"/><path d=" M 110.428 148.104 L 110.428 148.104 L 110.428 148.104 Q 110.428 149.393 109.373 150.135 L 109.373 150.135 L 109.373 150.135 Q 108.317 150.877 106.436 150.877 L 106.436 150.877 L 106.436 150.877 Q 104.703 150.877 103.369 150.304 L 103.369 150.304 L 103.369 148.43 L 103.369 148.43 Q 104.466 148.859 105.225 149.035 L 105.225 149.035 L 105.225 149.035 Q 105.984 149.211 106.614 149.211 L 106.614 149.211 L 106.614 149.211 Q 107.369 149.211 107.773 148.957 L 107.773 148.957 L 107.773 148.957 Q 108.177 148.703 108.177 148.202 L 108.177 148.202 L 108.177 148.202 Q 108.177 147.922 107.999 147.704 L 107.999 147.704 L 107.999 147.704 Q 107.821 147.486 107.477 147.284 L 107.477 147.284 L 107.477 147.284 Q 107.132 147.083 106.073 146.64 L 106.073 146.64 L 106.073 146.64 Q 105.08 146.23 104.584 145.852 L 104.584 145.852 L 104.584 145.852 Q 104.088 145.475 103.791 144.974 L 103.791 144.974 L 103.791 144.974 Q 103.495 144.473 103.495 143.802 L 103.495 143.802 L 103.495 143.802 Q 103.495 142.539 104.469 141.817 L 104.469 141.817 L 104.469 141.817 Q 105.443 141.094 107.162 141.094 L 107.162 141.094 L 107.162 141.094 Q 108.006 141.094 108.773 141.27 L 108.773 141.27 L 108.773 141.27 Q 109.539 141.446 110.377 141.765 L 110.377 141.765 L 109.636 143.334 L 109.636 143.334 Q 108.769 143.021 108.202 142.897 L 108.202 142.897 L 108.202 142.897 Q 107.636 142.774 107.088 142.774 L 107.088 142.774 L 107.088 142.774 Q 106.436 142.774 106.088 143.041 L 106.088 143.041 L 106.088 143.041 Q 105.74 143.307 105.74 143.737 L 105.74 143.737 L 105.74 143.737 Q 105.74 144.004 105.88 144.202 L 105.88 144.202 L 105.88 144.202 Q 106.021 144.401 106.328 144.586 L 106.328 144.586 L 106.328 144.586 Q 106.636 144.772 107.784 145.254 L 107.784 145.254 L 107.784 145.254 Q 109.302 145.891 109.865 146.533 L 109.865 146.533 L 109.865 146.533 Q 110.428 147.174 110.428 148.104 Z  M 116.991 142.774 L 116.991 142.774 L 116.991 142.774 Q 115.695 142.774 114.984 143.63 L 114.984 143.63 L 114.984 143.63 Q 114.273 144.486 114.273 146.015 L 114.273 146.015 L 114.273 146.015 Q 114.273 149.198 116.991 149.198 L 116.991 149.198 L 116.991 149.198 Q 118.132 149.198 119.754 148.697 L 119.754 148.697 L 119.754 150.389 L 119.754 150.389 Q 118.421 150.877 116.776 150.877 L 116.776 150.877 L 116.776 150.877 Q 114.413 150.877 113.162 149.618 L 113.162 149.618 L 113.162 149.618 Q 111.91 148.358 111.91 146.002 L 111.91 146.002 L 111.91 146.002 Q 111.91 144.518 112.525 143.402 L 112.525 143.402 L 112.525 143.402 Q 113.139 142.286 114.291 141.69 L 114.291 141.69 L 114.291 141.69 Q 115.443 141.094 116.991 141.094 L 116.991 141.094 L 116.991 141.094 Q 118.569 141.094 120.161 141.765 L 120.161 141.765 L 119.421 143.405 L 119.421 143.405 Q 118.813 143.151 118.199 142.963 L 118.199 142.963 L 118.199 142.963 Q 117.584 142.774 116.991 142.774 Z  M 131.161 150.747 L 128.687 150.747 L 127.902 148.482 L 123.954 148.482 L 123.169 150.747 L 120.695 150.747 L 124.517 141.192 L 127.324 141.192 L 131.161 150.747 L 131.161 150.747 Z  M 124.532 146.79 L 127.354 146.79 L 127.354 146.79 Q 126.265 143.711 126.128 143.307 L 126.128 143.307 L 126.128 143.307 Q 125.991 142.904 125.932 142.67 L 125.932 142.67 L 125.932 142.67 Q 125.687 143.503 124.532 146.79 L 124.532 146.79 L 124.532 146.79 Z  M 139.213 150.747 L 132.524 150.747 L 132.524 141.231 L 134.82 141.231 L 134.82 149.081 L 139.213 149.081 L 139.213 150.747 L 139.213 150.747 Z  M 150.198 150.747 L 147.724 150.747 L 146.939 148.482 L 142.991 148.482 L 142.205 150.747 L 139.731 150.747 L 143.553 141.192 L 146.361 141.192 L 150.198 150.747 L 150.198 150.747 Z  M 143.568 146.79 L 146.39 146.79 L 146.39 146.79 Q 145.302 143.711 145.165 143.307 L 145.165 143.307 L 145.165 143.307 Q 145.028 142.904 144.968 142.67 L 144.968 142.67 L 144.968 142.67 Q 144.724 143.503 143.568 146.79 L 143.568 146.79 L 143.568 146.79 Z  M 162.316 149.055 L 162.316 150.747 L 154.746 150.747 L 154.746 149.348 L 157.464 146.933 L 157.464 146.933 Q 158.672 145.846 159.042 145.426 L 159.042 145.426 L 159.042 145.426 Q 159.412 145.006 159.575 144.648 L 159.575 144.648 L 159.575 144.648 Q 159.738 144.29 159.738 143.906 L 159.738 143.906 L 159.738 143.906 Q 159.738 143.334 159.379 143.054 L 159.379 143.054 L 159.379 143.054 Q 159.02 142.774 158.42 142.774 L 158.42 142.774 L 158.42 142.774 Q 157.79 142.774 157.198 143.028 L 157.198 143.028 L 157.198 143.028 Q 156.605 143.281 155.961 143.75 L 155.961 143.75 L 154.716 142.455 L 154.716 142.455 Q 155.516 141.856 156.042 141.609 L 156.042 141.609 L 156.042 141.609 Q 156.568 141.361 157.19 141.228 L 157.19 141.228 L 157.19 141.228 Q 157.812 141.094 158.583 141.094 L 158.583 141.094 L 158.583 141.094 Q 159.598 141.094 160.375 141.42 L 160.375 141.42 L 160.375 141.42 Q 161.153 141.745 161.583 142.331 L 161.583 142.331 L 161.583 142.331 Q 162.012 142.917 162.012 143.672 L 162.012 143.672 L 162.012 143.672 Q 162.012 144.329 161.749 144.905 L 161.749 144.905 L 161.749 144.905 Q 161.486 145.481 160.935 146.087 L 160.935 146.087 L 160.935 146.087 Q 160.383 146.692 158.99 147.812 L 158.99 147.812 L 157.598 148.964 L 157.598 149.055 L 162.316 149.055 L 162.316 149.055 Z  M 174.493 143.36 L 174.493 143.36 L 174.493 143.36 Q 174.493 144.251 173.879 144.876 L 173.879 144.876 L 173.879 144.876 Q 173.264 145.501 172.153 145.735 L 172.153 145.735 L 172.153 145.774 L 172.153 145.774 Q 173.464 145.917 174.138 146.474 L 174.138 146.474 L 174.138 146.474 Q 174.812 147.03 174.812 147.974 L 174.812 147.974 L 174.812 147.974 Q 174.812 149.348 173.679 150.112 L 173.679 150.112 L 173.679 150.112 Q 172.545 150.877 170.442 150.877 L 170.442 150.877 L 170.442 150.877 Q 168.679 150.877 167.316 150.363 L 167.316 150.363 L 167.316 148.651 L 167.316 148.651 Q 167.945 148.931 168.701 149.107 L 168.701 149.107 L 168.701 149.107 Q 169.457 149.283 170.197 149.283 L 170.197 149.283 L 170.197 149.283 Q 171.331 149.283 171.871 148.944 L 171.871 148.944 L 171.871 148.944 Q 172.412 148.606 172.412 147.857 L 172.412 147.857 L 172.412 147.857 Q 172.412 147.187 171.79 146.907 L 171.79 146.907 L 171.79 146.907 Q 171.168 146.627 169.805 146.627 L 169.805 146.627 L 168.982 146.627 L 168.982 145.084 L 169.82 145.084 L 169.82 145.084 Q 171.079 145.084 171.66 144.795 L 171.66 144.795 L 171.66 144.795 Q 172.242 144.505 172.242 143.802 L 172.242 143.802 L 172.242 143.802 Q 172.242 142.722 170.701 142.722 L 170.701 142.722 L 170.701 142.722 Q 170.168 142.722 169.616 142.878 L 169.616 142.878 L 169.616 142.878 Q 169.064 143.034 168.39 143.418 L 168.39 143.418 L 167.331 142.032 L 167.331 142.032 Q 168.812 141.094 170.864 141.094 L 170.864 141.094 L 170.864 141.094 Q 172.545 141.094 173.519 141.693 L 173.519 141.693 L 173.519 141.693 Q 174.493 142.292 174.493 143.36 Z  M 179.827 147.987 L 175.849 147.987 L 175.849 146.36 L 179.827 146.36 L 179.827 147.987 L 179.827 147.987 Z  M 188.701 147.213 L 188.701 148.775 L 187.397 148.775 L 187.397 150.747 L 185.16 150.747 L 185.16 148.775 L 180.538 148.775 L 180.538 147.375 L 185.286 141.231 L 187.397 141.231 L 187.397 147.213 L 188.701 147.213 L 188.701 147.213 Z  M 182.553 147.213 L 185.16 147.213 L 185.16 145.599 L 185.16 145.599 Q 185.16 145.195 185.197 144.427 L 185.197 144.427 L 185.197 144.427 Q 185.234 143.659 185.256 143.535 L 185.256 143.535 L 185.197 143.535 L 185.197 143.535 Q 184.923 144.069 184.538 144.577 L 184.538 144.577 L 182.553 147.213 L 182.553 147.213 Z  M 193.486 144.668 L 193.486 144.668 L 193.486 144.668 Q 195.056 144.668 195.986 145.442 L 195.986 145.442 L 195.986 145.442 Q 196.915 146.217 196.915 147.564 L 196.915 147.564 L 196.915 147.564 Q 196.915 149.159 195.797 150.018 L 195.797 150.018 L 195.797 150.018 Q 194.678 150.877 192.597 150.877 L 192.597 150.877 L 192.597 150.877 Q 190.789 150.877 189.678 150.363 L 189.678 150.363 L 189.678 148.625 L 189.678 148.625 Q 190.263 148.899 191.041 149.071 L 191.041 149.071 L 191.041 149.071 Q 191.819 149.243 192.515 149.243 L 192.515 149.243 L 192.515 149.243 Q 194.611 149.243 194.611 147.733 L 194.611 147.733 L 194.611 147.733 Q 194.611 146.295 192.441 146.295 L 192.441 146.295 L 192.441 146.295 Q 192.049 146.295 191.575 146.363 L 191.575 146.363 L 191.575 146.363 Q 191.1 146.432 190.804 146.51 L 190.804 146.51 L 189.893 146.08 L 190.3 141.231 L 196.174 141.231 L 196.174 142.936 L 192.308 142.936 L 192.108 144.804 L 192.367 144.759 L 192.367 144.759 Q 192.819 144.668 193.486 144.668 Z " fill-rule="evenodd" fill="rgb(96,125,139)"/></svg>